<?xml version="1.0" encoding="UTF-8" standalone="no"?>
<!-- Created with Inkscape (http://www.inkscape.org/) -->

<svg
   xmlns:ns1="http://www.iki.fi/pav/software/textext/"
   xmlns:dc="http://purl.org/dc/elements/1.1/"
   xmlns:cc="http://creativecommons.org/ns#"
   xmlns:rdf="http://www.w3.org/1999/02/22-rdf-syntax-ns#"
   xmlns:svg="http://www.w3.org/2000/svg"
   xmlns="http://www.w3.org/2000/svg"
   xmlns:xlink="http://www.w3.org/1999/xlink"
   xmlns:sodipodi="http://sodipodi.sourceforge.net/DTD/sodipodi-0.dtd"
   xmlns:inkscape="http://www.inkscape.org/namespaces/inkscape"
   inkscape:version="0.92.4 (5da689c313, 2019-01-14)"
   sodipodi:docname="draft.svg"
   viewBox="0 0 453.5433 340.15747"
   height="340.15747"
   width="453.5433"
   xml:space="preserve"
   id="svg815"
   version="1.1"><metadata
     id="metadata821"><rdf:RDF><cc:Work
         rdf:about=""><dc:format>image/svg+xml</dc:format><dc:type
           rdf:resource="http://purl.org/dc/dcmitype/StillImage" /><dc:title></dc:title></cc:Work></rdf:RDF></metadata><defs
     id="defs819"><marker
       inkscape:stockid="Arrow1Lend"
       orient="auto"
       refY="0.0"
       refX="0.0"
       id="Arrow1Lend"
       style="overflow:visible;"
       inkscape:isstock="true"><path
         id="path3087"
         d="M 0.0,0.0 L 5.0,-5.0 L -12.5,0.0 L 5.0,5.0 L 0.0,0.0 z "
         style="fill-rule:evenodd;stroke:#0000ff;stroke-width:1pt;stroke-opacity:1;fill:#0000ff;fill-opacity:1"
         transform="scale(0.8) rotate(180) translate(12.5,0)" /></marker><linearGradient
       inkscape:collect="always"
       id="linearGradient1413"><stop
         style="stop-color:#ffaaaa;stop-opacity:1;"
         offset="0"
         id="stop1409" /><stop
         style="stop-color:#ffaaaa;stop-opacity:0;"
         offset="1"
         id="stop1411" /></linearGradient><clipPath
       clipPathUnits="userSpaceOnUse"
       id="clipPath971"><path
         d="m 217.836,38.945 c -0.289,9.438 8.684,20.493 18.891,24.356 10.211,3.867 21.652,0.547 29.921,4.379 8.266,3.836 13.356,14.832 19.231,22.23 5.879,7.402 12.535,11.215 21.945,5.02 9.406,-6.192 21.559,-22.387 18.59,-28.496 -2.969,-6.11 -21.062,-2.137 -29.816,-6.629 -8.754,-4.493 -8.172,-17.45 -13.871,-20.778 -5.704,-3.324 -17.688,2.985 -26.325,0.395 -8.632,-2.59 -13.906,-14.074 -21.316,-15.906 -7.414,-1.832 -16.961,5.992 -17.25,15.429 z"
         id="path969"
         inkscape:connector-curvature="0" /></clipPath><clipPath
       clipPathUnits="userSpaceOnUse"
       id="clipPath979"><path
         d="M 276.92608,14.213567 H 444.96822 V 149.73969 H 276.92608 Z"
         id="path977"
         inkscape:connector-curvature="0" /></clipPath><linearGradient
       x1="363.32523"
       y1="78.642212"
       x2="309.69385"
       y2="127.38292"
       gradientUnits="userSpaceOnUse"
       spreadMethod="pad"
       id="linearGradient985"><stop
         style="stop-opacity:1;stop-color:#ffffff"
         offset="0"
         id="stop981" /><stop
         style="stop-opacity:0;stop-color:#ffffff"
         offset="1"
         id="stop983" /></linearGradient><mask
       maskUnits="userSpaceOnUse"
       x="0"
       y="0"
       width="1"
       height="1"
       id="mask987"><g
         id="g993"><g
           clip-path="url(#clipPath979)"
           id="g991"><path
             d="M 276.92608,14.213567 H 444.96822 V 149.73969 H 276.92608 Z"
             style="fill:url(#linearGradient985);stroke:none"
             id="path989"
             inkscape:connector-curvature="0" /></g></g></mask><linearGradient
       x1="363.32523"
       y1="78.642212"
       x2="309.69385"
       y2="127.38292"
       gradientUnits="userSpaceOnUse"
       spreadMethod="pad"
       id="linearGradient1001"><stop
         style="stop-opacity:1;stop-color:#ffaaaa"
         offset="0"
         id="stop997" /><stop
         style="stop-opacity:1;stop-color:#ffaaaa"
         offset="1"
         id="stop999" /></linearGradient><linearGradient
       inkscape:collect="always"
       xlink:href="#linearGradient1413"
       id="linearGradient1415"
       x1="254.98991"
       y1="105.6416"
       x2="239.57587"
       y2="124.25925"
       gradientUnits="userSpaceOnUse" /></defs><sodipodi:namedview
     pagecolor="#ffffff"
     bordercolor="#666666"
     borderopacity="1"
     objecttolerance="10"
     gridtolerance="10"
     guidetolerance="10"
     inkscape:pageopacity="0"
     inkscape:pageshadow="2"
     inkscape:window-width="958"
     inkscape:window-height="1049"
     id="namedview817"
     showgrid="false"
     inkscape:zoom="1.7815"
     inkscape:cx="169.76774"
     inkscape:cy="170.96091"
     inkscape:window-x="960"
     inkscape:window-y="0"
     inkscape:window-maximized="0"
     inkscape:current-layer="g823"
     scale-x="0.5"
     inkscape:pagecheckerboard="true" /><g
     inkscape:groupmode="layer"
     id="layer2"
     inkscape:label="drawing 2"><path
       inkscape:connector-curvature="0"
       id="path959"
       style="fill:#000000;fill-opacity:0.453659;fill-rule:evenodd;stroke:none;stroke-width:1.33333325"
       d="m 421.02119,171.07086 -1.95699,0.10546 4.53674,2.2111 -2.68554,-4.2723 z" /><g
       id="g955"
       transform="matrix(1.311254,0.24164143,-0.24164143,1.311254,17.828929,-63.257928)"><path
         inkscape:connector-curvature="0"
         id="path957"
         style="fill:none;stroke:#000000;stroke-width:0.51991498;stroke-linecap:butt;stroke-linejoin:miter;stroke-miterlimit:4;stroke-dasharray:none;stroke-opacity:0.453659"
         d="m 270.91,82.18 58.422,35.937" /></g><g
       transform="matrix(-1.1654256,-1.0451022,1.0451022,-1.1654256,19.239519,-60.403968)"
       id="g961"><path
         inkscape:connector-curvature="0"
         id="path963"
         style="fill:none;stroke:#000000;stroke-width:0.236182;stroke-linecap:butt;stroke-linejoin:miter;stroke-miterlimit:4;stroke-dasharray:none;stroke-opacity:0.453659"
         d="m -289.866,61.277 0.886,-0.885 -3.101,0.884 3.1,0.886 z" /></g></g><g
     id="g823"
     inkscape:groupmode="layer"
     inkscape:label="drawing"
     transform="matrix(1.3333333,0,0,1.3333333,0,7.8372701e-6)"><g
   id="g827"
   transform="translate(-4.5,1.5)"><path
     inkscape:connector-curvature="0"
     id="path829"
     style="fill:none;stroke:#000000;stroke-width:0.45271799;stroke-linecap:butt;stroke-linejoin:miter;stroke-miterlimit:4;stroke-dasharray:none;stroke-opacity:0.99024395"
     d="m 61.5,169.949 v 59.52" /></g><path
   inkscape:connector-curvature="0"
   id="path831"
   style="fill:#000000;fill-opacity:0.99024395;fill-rule:evenodd;stroke:none"
   d="m 57,173.258 0.906,0.906 -0.906,-3.168 -0.902,3.168 z" /><g
   transform="rotate(90,-3,-1.5)"
   id="g833"><path
     inkscape:connector-curvature="0"
     id="path835"
     style="fill:none;stroke:#000000;stroke-width:0.24145;stroke-linecap:butt;stroke-linejoin:miter;stroke-miterlimit:4;stroke-dasharray:none;stroke-opacity:0.99024395"
     d="m 171.758,-61.5 0.906,-0.906 -3.168,0.906 3.168,0.902 z" /></g><g
   id="g837"
   transform="translate(-4.5,1.5)"><path
     inkscape:connector-curvature="0"
     id="path839"
     style="fill:none;stroke:#000000;stroke-width:0.425071;stroke-linecap:butt;stroke-linejoin:miter;stroke-miterlimit:4;stroke-dasharray:none;stroke-opacity:1"
     d="m 54.258,226.328 128.492,0.629" /></g><g
   transform="matrix(-1,-0.00489937,0.00489937,-1,-4.5,1.5)"
   id="g841"><path
     inkscape:connector-curvature="0"
     id="path843"
     style="fill:#000000;fill-opacity:1;fill-rule:evenodd;stroke:#000000;stroke-width:0.226702;stroke-linecap:butt;stroke-linejoin:miter;stroke-miterlimit:4;stroke-dasharray:none;stroke-opacity:1"
     d="m -182.158,-226.057 0.851,-0.848 -2.976,0.851 2.977,0.849 z" /></g><g
   transform="matrix(1,0,0,0.906245,-4.5,1.5)"
   id="g845"><path
     inkscape:connector-curvature="0"
     id="path847"
     style="fill:none;stroke:#000000;stroke-width:0.56636399;stroke-linecap:butt;stroke-linejoin:miter;stroke-miterlimit:4;stroke-dasharray:none;stroke-opacity:1"
     d="m 99.328,93.423 c 28.375,-22.591 61.578,-37.574 98.36,-36.828" /></g><g
   transform="matrix(-1,-0.0183162,0.020211,-0.906245,-4.5,1.5)"
   id="g849"><path
     inkscape:connector-curvature="0"
     id="path851"
     style="fill:#000000;fill-opacity:1;fill-rule:evenodd;stroke:#000000;stroke-width:0.301999;stroke-linecap:butt;stroke-linejoin:miter;stroke-miterlimit:4;stroke-dasharray:none;stroke-opacity:1"
     d="m -196.485,-52.577 1.134,-1.135 -3.966,1.137 3.965,1.131 z" /></g><g
   transform="matrix(-1,0.089069,-0.0795934,-0.906245,-4.5,1.5)"
   id="g853"><path
     inkscape:connector-curvature="0"
     id="path855"
     style="fill:none;stroke:#000000;stroke-width:0.56416202;stroke-linecap:butt;stroke-linejoin:miter;stroke-miterlimit:4;stroke-dasharray:none;stroke-opacity:1"
     d="m -274.812,-212.321 c 28.264,-22.502 61.338,-37.424 97.975,-36.685" /></g><g
   transform="matrix(1,-0.0706392,0.059287,0.906587,-4.5,1.5)"
   id="g857"><path
     inkscape:connector-curvature="0"
     id="path859"
     style="fill:#000000;fill-opacity:1;fill-rule:evenodd;stroke:#000000;stroke-width:0.30130899;stroke-linecap:butt;stroke-linejoin:miter;stroke-miterlimit:4;stroke-dasharray:none;stroke-opacity:1"
     d="m 184.346,245.726 1.129,-1.131 -3.953,1.131 3.956,1.131 z" /></g><g
   transform="matrix(1,0,0.573595,0.786591,-4.5,1.5)"
   id="g861"><path
     inkscape:connector-curvature="0"
     id="path863"
     style="fill:#ffaaaa;fill-opacity:1;fill-rule:nonzero;stroke:#000000;stroke-width:0.54205698;stroke-linecap:butt;stroke-linejoin:miter;stroke-miterlimit:4;stroke-dasharray:none;stroke-opacity:1"
     d="m -48.631,116.742 h 71.887 v 38.382 h -71.887 z" /></g><path
   inkscape:connector-curvature="0"
   id="path865"
   style="fill:#000000;fill-opacity:1;fill-rule:nonzero;stroke:none"
   d="m 34.488,100.367 c 0,0.418 -0.351,0.758 -0.789,0.758 -0.433,0 -0.789,-0.34 -0.789,-0.758 0,-0.418 0.356,-0.758 0.789,-0.758 0.438,0 0.789,0.34 0.789,0.758 z" /><g
   transform="matrix(1,0,0,0.960266,-4.5,1.5)"
   id="g867"><path
     inkscape:connector-curvature="0"
     id="path869"
     style="fill:none;stroke:#000000;stroke-width:0.49059501;stroke-linecap:butt;stroke-linejoin:round;stroke-miterlimit:4;stroke-dasharray:none;stroke-opacity:0.25853702"
     d="m 38.988,102.958 c 0,0.435 -0.351,0.789 -0.789,0.789 -0.433,0 -0.789,-0.354 -0.789,-0.789 0,-0.435 0.356,-0.789 0.789,-0.789 0.438,0 0.789,0.354 0.789,0.789 z" /></g><path
   inkscape:connector-curvature="0"
   id="path871"
   style="fill:#000000;fill-opacity:1;fill-rule:nonzero;stroke:none"
   d="m 56.188,100.078 c 0,0.418 -0.352,0.758 -0.79,0.758 -0.433,0 -0.785,-0.34 -0.785,-0.758 0,-0.418 0.352,-0.758 0.785,-0.758 0.438,0 0.79,0.34 0.79,0.758 z" /><g
   transform="matrix(1,0,0,0.960266,-4.5,1.5)"
   id="g873"><path
     inkscape:connector-curvature="0"
     id="path875"
     style="fill:none;stroke:#000000;stroke-width:0.49059501;stroke-linecap:butt;stroke-linejoin:round;stroke-miterlimit:4;stroke-dasharray:none;stroke-opacity:0.25853702"
     d="m 60.688,102.657 c 0,0.435 -0.352,0.789 -0.79,0.789 -0.433,0 -0.785,-0.354 -0.785,-0.789 0,-0.435 0.352,-0.789 0.785,-0.789 0.438,0 0.79,0.354 0.79,0.789 z" /></g><path
   inkscape:connector-curvature="0"
   id="path877"
   style="fill:#000000;fill-opacity:1;fill-rule:nonzero;stroke:none"
   d="m 94.574,118.621 c 0,0.418 -0.351,0.758 -0.785,0.758 -0.437,0 -0.789,-0.34 -0.789,-0.758 0,-0.418 0.352,-0.758 0.789,-0.758 0.434,0 0.785,0.34 0.785,0.758 z" /><g
   transform="matrix(1,0,0,0.960266,-4.5,1.5)"
   id="g879"><path
     inkscape:connector-curvature="0"
     id="path881"
     style="fill:none;stroke:#000000;stroke-width:0.49059501;stroke-linecap:butt;stroke-linejoin:round;stroke-miterlimit:4;stroke-dasharray:none;stroke-opacity:0.25853702"
     d="m 99.074,121.967 c 0,0.436 -0.351,0.79 -0.785,0.79 -0.437,0 -0.789,-0.354 -0.789,-0.79 0,-0.435 0.352,-0.789 0.789,-0.789 0.434,0 0.785,0.354 0.785,0.789 z" /></g><path
   inkscape:connector-curvature="0"
   id="path883"
   style="fill:#000000;fill-opacity:1;fill-rule:nonzero;stroke:none"
   d="m 81.152,106.637 c 0,0.418 -0.351,0.758 -0.789,0.758 -0.433,0 -0.789,-0.34 -0.789,-0.758 0,-0.418 0.356,-0.758 0.789,-0.758 0.438,0 0.789,0.34 0.789,0.758 z" /><g
   transform="matrix(1,0,0,0.960266,-4.5,1.5)"
   id="g885"><path
     inkscape:connector-curvature="0"
     id="path887"
     style="fill:none;stroke:#000000;stroke-width:0.49059501;stroke-linecap:butt;stroke-linejoin:round;stroke-miterlimit:4;stroke-dasharray:none;stroke-opacity:0.25853702"
     d="m 85.652,109.487 c 0,0.435 -0.351,0.789 -0.789,0.789 -0.433,0 -0.789,-0.354 -0.789,-0.789 0,-0.435 0.356,-0.789 0.789,-0.789 0.438,0 0.789,0.354 0.789,0.789 z" /></g><path
   inkscape:connector-curvature="0"
   id="path889"
   style="fill:#000000;fill-opacity:1;fill-rule:nonzero;stroke:none"
   d="m 64.434,114.551 c 0,0.418 -0.356,0.758 -0.789,0.758 -0.438,0 -0.79,-0.34 -0.79,-0.758 0,-0.418 0.352,-0.758 0.79,-0.758 0.433,0 0.789,0.34 0.789,0.758 z" /><g
   transform="matrix(1,0,0,0.960266,-4.5,1.5)"
   id="g891"><path
     inkscape:connector-curvature="0"
     id="path893"
     style="fill:none;stroke:#000000;stroke-width:0.49059501;stroke-linecap:butt;stroke-linejoin:round;stroke-miterlimit:4;stroke-dasharray:none;stroke-opacity:0.25853702"
     d="m 68.934,117.729 c 0,0.435 -0.356,0.789 -0.789,0.789 -0.438,0 -0.79,-0.354 -0.79,-0.789 0,-0.436 0.352,-0.79 0.79,-0.79 0.433,0 0.789,0.354 0.789,0.79 z" /></g><g
   transform="matrix(0.950671,0,0,1,-4.5,1.5)"
   id="g895"><path
     inkscape:connector-curvature="0"
     id="path897"
     style="fill:none;stroke:#ffccaa;stroke-width:0.90722799;stroke-linecap:butt;stroke-linejoin:miter;stroke-miterlimit:4;stroke-dasharray:none;stroke-opacity:0.47317104"
     d="m 75.391,179.973 c 3.435,5.75 6.87,11.496 12.688,15.984 5.823,4.488 14.024,7.715 21.63,9.223 7.609,1.504 14.619,1.297 22.048,3.117 7.433,1.824 15.286,5.68 22.858,5.785 7.573,0.106 14.866,-3.543 22.156,-7.187" /></g><g
   transform="matrix(0.950671,0,0,1,-4.5,1.5)"
   id="g899"><path
     inkscape:connector-curvature="0"
     id="path901"
     style="fill:none;stroke:#ffccaa;stroke-width:0.90722799;stroke-linecap:butt;stroke-linejoin:miter;stroke-miterlimit:4;stroke-dasharray:none;stroke-opacity:0.59024401"
     d="m 176.98,206.055 c -3.225,-0.352 -6.447,-0.703 -10.026,-0.774 -3.574,-0.07 -7.498,0.141 -13.567,-2.101 -6.065,-2.246 -14.267,-6.942 -21.872,-7.782 -7.606,-0.843 -14.616,2.172 -22.505,1.329 -7.893,-0.84 -16.653,-5.536 -22.402,-9.043 -5.748,-3.504 -8.485,-5.817 -11.217,-8.133" /></g><path
   inkscape:connector-curvature="0"
   id="path903"
   style="fill:#ffe6d5;fill-opacity:1;fill-rule:nonzero;stroke:none"
   d="m 137.023,214.375 c -1.398,-0.313 -5.296,-1.496 -8.66,-2.633 -7.82,-2.64 -10.117,-3.152 -18.91,-4.195 -10.496,-1.246 -14.629,-2.258 -21.035,-5.152 -7.762,-3.504 -12.555,-7.731 -17.34,-15.29 -1.176,-1.855 -2.078,-3.437 -2.008,-3.511 0.071,-0.078 0.836,0.437 1.7,1.14 6.3,5.149 16.695,10.934 23.046,12.828 5.254,1.567 8.606,1.649 16.575,0.415 2.441,-0.379 5.394,-0.622 7.547,-0.618 5.32,0.008 6.578,0.411 20.609,6.614 5.519,2.437 7.894,2.961 15.019,3.308 3.344,0.164 6.903,0.391 7.907,0.504 l 1.82,0.207 -4.227,2.129 c -4.769,2.402 -8.136,3.719 -11.261,4.399 -2.887,0.628 -7.59,0.562 -10.782,-0.145 z" /><path
   inkscape:connector-curvature="0"
   id="path905"
   style="fill:#ff6600;fill-opacity:1;fill-rule:nonzero;stroke:none"
   d="m 81.777,192.684 c 0,0.55 -0.422,0.996 -0.945,0.996 -0.523,0 -0.949,-0.446 -0.949,-0.996 0,-0.551 0.426,-0.996 0.949,-0.996 0.523,0 0.945,0.445 0.945,0.996 z" /><g
   id="g907"
   transform="translate(-4.5,1.5)"><path
     inkscape:connector-curvature="0"
     id="path909"
     style="fill:none;stroke:#000000;stroke-width:1.13566303;stroke-linecap:butt;stroke-linejoin:round;stroke-miterlimit:4;stroke-dasharray:none;stroke-opacity:0.25853702"
     d="m 86.277,191.184 c 0,0.55 -0.422,0.996 -0.945,0.996 -0.523,0 -0.949,-0.446 -0.949,-0.996 0,-0.551 0.426,-0.996 0.949,-0.996 0.523,0 0.945,0.445 0.945,0.996 z" /></g><path
   inkscape:connector-curvature="0"
   id="path911"
   style="fill:#ff6600;fill-opacity:1;fill-rule:nonzero;stroke:none"
   d="m 100.574,205.723 c 0,0.55 -0.422,0.996 -0.945,0.996 -0.524,0 -0.949,-0.446 -0.949,-0.996 0,-0.551 0.425,-0.996 0.949,-0.996 0.523,0 0.945,0.445 0.945,0.996 z" /><g
   id="g913"
   transform="translate(-4.5,1.5)"><path
     inkscape:connector-curvature="0"
     id="path915"
     style="fill:none;stroke:#000000;stroke-width:1.13566303;stroke-linecap:butt;stroke-linejoin:round;stroke-miterlimit:4;stroke-dasharray:none;stroke-opacity:0.25853702"
     d="m 105.074,204.223 c 0,0.55 -0.422,0.996 -0.945,0.996 -0.524,0 -0.949,-0.446 -0.949,-0.996 0,-0.551 0.425,-0.996 0.949,-0.996 0.523,0 0.945,0.445 0.945,0.996 z" /></g><path
   inkscape:connector-curvature="0"
   id="path917"
   style="fill:#ff6600;fill-opacity:1;fill-rule:nonzero;stroke:none"
   d="m 120.969,198.992 c 0,0.551 -0.422,0.996 -0.946,0.996 -0.523,0 -0.949,-0.445 -0.949,-0.996 0,-0.551 0.426,-0.996 0.949,-0.996 0.524,0 0.946,0.445 0.946,0.996 z" /><g
   id="g919"
   transform="translate(-4.5,1.5)"><path
     inkscape:connector-curvature="0"
     id="path921"
     style="fill:none;stroke:#000000;stroke-width:1.13566303;stroke-linecap:butt;stroke-linejoin:round;stroke-miterlimit:4;stroke-dasharray:none;stroke-opacity:0.25853702"
     d="m 125.469,197.492 c 0,0.551 -0.422,0.996 -0.946,0.996 -0.523,0 -0.949,-0.445 -0.949,-0.996 0,-0.551 0.426,-0.996 0.949,-0.996 0.524,0 0.946,0.445 0.946,0.996 z" /></g><path
   inkscape:connector-curvature="0"
   id="path923"
   style="fill:#ff6600;fill-opacity:1;fill-rule:nonzero;stroke:none"
   d="m 142.965,215.82 c 0,0.551 -0.422,0.996 -0.945,0.996 -0.524,0 -0.95,-0.445 -0.95,-0.996 0,-0.55 0.426,-0.996 0.95,-0.996 0.523,0 0.945,0.446 0.945,0.996 z" /><g
   id="g925"
   transform="translate(-4.5,1.5)"><path
     inkscape:connector-curvature="0"
     id="path927"
     style="fill:none;stroke:#000000;stroke-width:1.13566303;stroke-linecap:butt;stroke-linejoin:round;stroke-miterlimit:4;stroke-dasharray:none;stroke-opacity:0.25853702"
     d="m 147.465,214.32 c 0,0.551 -0.422,0.996 -0.945,0.996 -0.524,0 -0.95,-0.445 -0.95,-0.996 0,-0.55 0.426,-0.996 0.95,-0.996 0.523,0 0.945,0.446 0.945,0.996 z" /></g><path
   inkscape:connector-curvature="0"
   id="path929"
   style="fill:#ff6600;fill-opacity:1;fill-rule:nonzero;stroke:none"
   d="m 155.762,203.906 c 0,0.547 -0.422,0.996 -0.946,0.996 -0.523,0 -0.949,-0.449 -0.949,-0.996 0,-0.551 0.426,-0.996 0.949,-0.996 0.524,0 0.946,0.445 0.946,0.996 z" /><g
   id="g931"
   transform="translate(-4.5,1.5)"><path
     inkscape:connector-curvature="0"
     id="path933"
     style="fill:none;stroke:#000000;stroke-width:1.13566303;stroke-linecap:butt;stroke-linejoin:round;stroke-miterlimit:4;stroke-dasharray:none;stroke-opacity:0.25853702"
     d="m 160.262,202.406 c 0,0.547 -0.422,0.996 -0.946,0.996 -0.523,0 -0.949,-0.449 -0.949,-0.996 0,-0.551 0.426,-0.996 0.949,-0.996 0.524,0 0.946,0.445 0.946,0.996 z" /></g><g
   transform="matrix(0.950671,0,0,1,-4.5,1.5)"
   id="g935"><path
     inkscape:connector-curvature="0"
     id="path937"
     style="fill:none;stroke:#ff6600;stroke-width:0.90722799;stroke-linecap:butt;stroke-linejoin:miter;stroke-miterlimit:4;stroke-dasharray:none;stroke-opacity:1"
     d="m 74.614,179.402 c 4.487,5.192 8.974,10.379 15.006,14.586 6.028,4.207 13.601,7.43 20.964,7.922 7.363,0.488 14.513,-1.754 21.942,-0.211 7.433,1.543 15.145,6.871 21.317,8.485 6.167,1.609 10.798,-0.493 14.303,-1.754 3.505,-1.262 5.888,-1.684 8.271,-2.102" /></g><g
   id="g939"
   transform="translate(-4.5,3)"><path
     inkscape:connector-curvature="0"
     id="path941"
     style="fill:none;stroke:#000000;stroke-width:0.51991498;stroke-linecap:butt;stroke-linejoin:miter;stroke-miterlimit:4;stroke-dasharray:none;stroke-opacity:0.453659"
     d="m 270.562,20.336 0.411,61.871 -57.196,31.859" /></g><path
   inkscape:connector-curvature="0"
   id="path943"
   style="fill:#000000;fill-opacity:0.453659;fill-rule:evenodd;stroke:none"
   d="m 266.078,23.914 1.043,1.035 -1.062,-3.633 -1.016,3.645 z" /><g
   transform="matrix(0.00660332,1,-1,0.00660332,-4.5,1.5)"
   id="g945"><path
     inkscape:connector-curvature="0"
     id="path947"
     style="fill:none;stroke:#000000;stroke-width:0.277282;stroke-linecap:butt;stroke-linejoin:miter;stroke-miterlimit:4;stroke-dasharray:none;stroke-opacity:0.453659"
     d="m 24.2,-270.418 1.042,-1.036 -3.64,1.038 3.638,1.04 z" /></g><path
   inkscape:connector-curvature="0"
   id="path949"
   style="fill:#000000;fill-opacity:0.453659;fill-rule:evenodd;stroke:none"
   d="m 211.094,116.055 0.402,-1.414 -2.676,2.679 3.688,-0.863 z" /><g
   transform="matrix(1,-0.557057,0.557057,1,-4.5,3)"
   id="g951"><path
     inkscape:connector-curvature="0"
     id="path953"
     style="fill:none;stroke:#000000;stroke-width:0.242239;stroke-linecap:butt;stroke-linejoin:miter;stroke-miterlimit:4;stroke-dasharray:none;stroke-opacity:0.453659"
     d="m 116.473,177.937 0.908,-0.908 -3.181,0.907 3.181,0.909 z" /></g><g
   transform="matrix(1,-0.145113,0.141849,0.938599,-4.5,25.5)"
   id="g1005"><path
     inkscape:connector-curvature="0"
     id="path1007"
     style="fill:url(#linearGradient1415);fill-opacity:1;stroke:#000000;stroke-width:0.40127501;stroke-linecap:butt;stroke-linejoin:miter;stroke-miterlimit:4;stroke-dasharray:none;stroke-opacity:1"
     d="m 207.402,73.559 c -1.679,9.795 5.466,22.677 14.883,28.249 9.42,5.577 21.107,3.846 28.632,9.092 7.521,5.25 10.876,17.484 15.531,26.086 4.658,8.607 10.607,13.589 20.732,8.553 10.12,-5.031 24.406,-20.077 22.405,-26.896 -2.002,-6.818 -20.295,-5.414 -28.197,-11.422 -7.901,-6.007 -5.416,-19.428 -10.5,-23.76 -5.089,-4.328 -17.75,0.436 -25.818,-3.571 -8.065,-4.006 -11.526,-16.777 -18.507,-19.808 -6.984,-3.032 -17.483,3.681 -19.161,13.477 z" /></g><g
   id="g1009"
   transform="translate(-4.5,25.5)"><path
     inkscape:connector-curvature="0"
     id="path1011"
     style="fill:none;stroke:#3366cc;stroke-width:0.692846;stroke-linecap:butt;stroke-linejoin:miter;stroke-miterlimit:4;stroke-dasharray:2.771383, 0.692846;stroke-dashoffset:0;stroke-opacity:0.42439001"
     d="m 259.109,51.645 24.055,14.261" /></g><g
   id="g1013"
   transform="translate(-4.5,25.5)"><path
     inkscape:connector-curvature="0"
     id="path1015"
     style="fill:none;stroke:#3366cc;stroke-width:0.692846;stroke-linecap:butt;stroke-linejoin:miter;stroke-miterlimit:4;stroke-dasharray:none;stroke-opacity:1"
     d="m 282.391,65.438 19.277,11.757" /></g><g
   id="g1017"
   transform="translate(-4.5,25.5)"><path
     inkscape:connector-curvature="0"
     id="path1019"
     style="fill:none;stroke:#3366cc;stroke-width:0.692846;stroke-linecap:butt;stroke-linejoin:miter;stroke-miterlimit:4;stroke-dasharray:2.771383, 0.692846;stroke-dashoffset:0;stroke-opacity:0.43414702"
     d="m 301.941,77.418 15.129,9.359" /></g><g
   id="g1021"
   transform="translate(-4.5,25.5)"><path
     inkscape:connector-curvature="0"
     id="path1023"
     style="fill:none;stroke:#3366cc;stroke-width:0.692846;stroke-linecap:butt;stroke-linejoin:miter;stroke-miterlimit:4;stroke-dasharray:none;stroke-opacity:1"
     d="m 317.121,86.676 9.684,5.859" /></g><g
   id="g1025"
   transform="translate(-4.5,25.5)"><path
     inkscape:connector-curvature="0"
     id="path1027"
     style="fill:none;stroke:#3366cc;stroke-width:0.692846;stroke-linecap:butt;stroke-linejoin:miter;stroke-miterlimit:4;stroke-dasharray:none;stroke-opacity:1"
     d="M 229.121,34.008 258.18,51.176" /></g><g
   id="g1029"
   transform="translate(-4.5,25.5)"><path
     inkscape:connector-curvature="0"
     id="path1031"
     style="fill:none;stroke:#3366cc;stroke-width:0.692846;stroke-linecap:butt;stroke-linejoin:miter;stroke-miterlimit:4;stroke-dasharray:2.771383, 0.692846;stroke-dashoffset:0;stroke-opacity:0.35609801"
     d="m 222.078,29.746 6.551,4.027" /></g><g
   id="g1033"
   transform="translate(-4.5,25.5)"><path
     inkscape:connector-curvature="0"
     id="path1035"
     style="fill:none;stroke:#3366cc;stroke-width:0.692846;stroke-linecap:butt;stroke-linejoin:miter;stroke-miterlimit:4;stroke-dasharray:none;stroke-opacity:1"
     d="m 214.531,24.727 7.047,4.707" /></g><g
   transform="matrix(1,0.66754,-0.66754,1,-4.5,25.5)"
   id="g1037"><path
     inkscape:connector-curvature="0"
     id="path1039"
     style="fill:#3366cc;fill-opacity:1;fill-rule:evenodd;stroke:#3366cc;stroke-width:0.30733299;stroke-linecap:butt;stroke-linejoin:miter;stroke-miterlimit:4;stroke-dasharray:none;stroke-opacity:1"
     d="m 162.125,-81.959 1.153,-1.152 -4.032,1.152 4.031,1.152 z" /></g><g
   id="g1057"
   transform="translate(-4.5,25.5)"><path
     inkscape:connector-curvature="0"
     id="path1059"
     style="fill:#0000ff;fill-opacity:1;fill-rule:nonzero;stroke:#0000ff;stroke-width:0.31569001;stroke-linecap:butt;stroke-linejoin:miter;stroke-miterlimit:4;stroke-dasharray:none;stroke-opacity:1"
     d="m 245.988,43.445 3.231,-5.8" /></g><g
   transform="matrix(0.556994,-1,1,0.556994,-4.5,25.5)"
   id="g1061"><path
     inkscape:connector-curvature="0"
     id="path1063"
     style="fill:#0000ff;fill-opacity:1;fill-rule:evenodd;stroke:#0000ff;stroke-width:0.14709;stroke-linecap:butt;stroke-linejoin:miter;stroke-miterlimit:4;stroke-dasharray:none;stroke-opacity:1"
     d="m 72.515,206.211 0.553,-0.55 -1.931,0.552 1.931,0.55 z" /></g><g
   id="g1065"
   transform="translate(-4.5,25.5)"><path
     inkscape:connector-curvature="0"
     id="path1067"
     style="fill:#0000ff;fill-opacity:1;fill-rule:nonzero;stroke:#0000ff;stroke-width:0.37566;stroke-linecap:butt;stroke-linejoin:miter;stroke-miterlimit:4;stroke-dasharray:none;stroke-opacity:1"
     d="m 290.828,70.035 4.242,-7.676" /></g><g
   transform="matrix(0.552412,-1,1,0.552412,-4.5,25.5)"
   id="g1069"><path
     inkscape:connector-curvature="0"
     id="path1071"
     style="fill:#0000ff;fill-opacity:1;fill-rule:evenodd;stroke:#0000ff;stroke-width:0.175373;stroke-linecap:butt;stroke-linejoin:miter;stroke-miterlimit:4;stroke-dasharray:none;stroke-opacity:1"
     d="m 70.747,252.473 0.66,-0.657 -2.304,0.659 2.304,0.657 z" /></g><path
   inkscape:connector-curvature="0"
   id="path1073"
   style="fill:#000000;fill-opacity:1;fill-rule:nonzero;stroke:none"
   d="m 218.781,65.457 c 0,0.484 -0.386,0.875 -0.863,0.875 -0.477,0 -0.863,-0.391 -0.863,-0.875 0,-0.484 0.386,-0.875 0.863,-0.875 0.477,0 0.863,0.391 0.863,0.875 z" /><g
   id="g1075"
   transform="translate(-4.5,25.5)"><path
     inkscape:connector-curvature="0"
     id="path1077"
     style="fill:none;stroke:#000000;stroke-width:1.016886;stroke-linecap:butt;stroke-linejoin:round;stroke-miterlimit:4;stroke-dasharray:none;stroke-opacity:0.25853702"
     d="m 223.281,39.957 c 0,0.484 -0.386,0.875 -0.863,0.875 -0.477,0 -0.863,-0.391 -0.863,-0.875 0,-0.484 0.386,-0.875 0.863,-0.875 0.477,0 0.863,0.391 0.863,0.875 z" /></g><path
   inkscape:connector-curvature="0"
   id="path1079"
   style="fill:#000000;fill-opacity:1;fill-rule:nonzero;stroke:none"
   d="m 245.32,63.625 c 0,0.484 -0.386,0.875 -0.863,0.875 -0.477,0 -0.863,-0.391 -0.863,-0.875 0,-0.484 0.386,-0.879 0.863,-0.879 0.477,0 0.863,0.395 0.863,0.879 z" /><g
   id="g1081"
   transform="translate(-4.5,25.5)"><path
     inkscape:connector-curvature="0"
     id="path1083"
     style="fill:none;stroke:#000000;stroke-width:1.016886;stroke-linecap:butt;stroke-linejoin:round;stroke-miterlimit:4;stroke-dasharray:none;stroke-opacity:0.25853702"
     d="m 249.82,38.125 c 0,0.484 -0.386,0.875 -0.863,0.875 -0.477,0 -0.863,-0.391 -0.863,-0.875 0,-0.484 0.386,-0.879 0.863,-0.879 0.477,0 0.863,0.395 0.863,0.879 z" /></g><path
   inkscape:connector-curvature="0"
   id="path1085"
   style="fill:#000000;fill-opacity:1;fill-rule:nonzero;stroke:none"
   d="m 262.324,87.445 c 0,0.485 -0.386,0.875 -0.863,0.875 -0.477,0 -0.863,-0.39 -0.863,-0.875 0,-0.484 0.386,-0.879 0.863,-0.879 0.477,0 0.863,0.395 0.863,0.879 z" /><g
   id="g1087"
   transform="translate(-4.5,25.5)"><path
     inkscape:connector-curvature="0"
     id="path1089"
     style="fill:none;stroke:#000000;stroke-width:1.016886;stroke-linecap:butt;stroke-linejoin:round;stroke-miterlimit:4;stroke-dasharray:none;stroke-opacity:0.25853702"
     d="m 266.824,61.945 c 0,0.485 -0.386,0.875 -0.863,0.875 -0.477,0 -0.863,-0.39 -0.863,-0.875 0,-0.484 0.386,-0.879 0.863,-0.879 0.477,0 0.863,0.395 0.863,0.879 z" /></g><path
   inkscape:connector-curvature="0"
   id="path1091"
   style="fill:#000000;fill-opacity:1;fill-rule:nonzero;stroke:none"
   d="m 291.18,88.492 c 0,0.485 -0.387,0.875 -0.864,0.875 -0.476,0 -0.863,-0.39 -0.863,-0.875 0,-0.484 0.387,-0.879 0.863,-0.879 0.477,0 0.864,0.395 0.864,0.879 z" /><g
   id="g1093"
   transform="translate(-4.5,25.5)"><path
     inkscape:connector-curvature="0"
     id="path1095"
     style="fill:none;stroke:#000000;stroke-width:1.016886;stroke-linecap:butt;stroke-linejoin:round;stroke-miterlimit:4;stroke-dasharray:none;stroke-opacity:0.25853702"
     d="m 295.68,62.992 c 0,0.485 -0.387,0.875 -0.864,0.875 -0.476,0 -0.863,-0.39 -0.863,-0.875 0,-0.484 0.387,-0.879 0.863,-0.879 0.477,0 0.864,0.395 0.864,0.879 z" /></g><path
   inkscape:connector-curvature="0"
   id="path1097"
   style="fill:#000000;fill-opacity:1;fill-rule:nonzero;stroke:none"
   d="m 299.684,114.668 c 0,0.484 -0.387,0.875 -0.864,0.875 -0.476,0 -0.863,-0.391 -0.863,-0.875 0,-0.484 0.387,-0.879 0.863,-0.879 0.477,0 0.864,0.395 0.864,0.879 z" /><g
   id="g1099"
   transform="translate(-4.5,25.5)"><path
     inkscape:connector-curvature="0"
     id="path1101"
     style="fill:none;stroke:#000000;stroke-width:1.016886;stroke-linecap:butt;stroke-linejoin:round;stroke-miterlimit:4;stroke-dasharray:none;stroke-opacity:0.25853702"
     d="m 304.184,89.168 c 0,0.484 -0.387,0.875 -0.864,0.875 -0.476,0 -0.863,-0.391 -0.863,-0.875 0,-0.484 0.387,-0.879 0.863,-0.879 0.477,0 0.864,0.395 0.864,0.879 z" /></g><path
   inkscape:connector-curvature="0"
   id="path1103"
   style="fill:#0000ff;fill-opacity:1;fill-rule:nonzero;stroke:none"
   d="m 223.547,58.129 c 0,0.484 -0.387,0.875 -0.863,0.875 -0.477,0 -0.864,-0.391 -0.864,-0.875 0,-0.484 0.387,-0.879 0.864,-0.879 0.476,0 0.863,0.395 0.863,0.879 z" /><g
   id="g1105"
   transform="translate(-4.5,25.5)"><path
     inkscape:connector-curvature="0"
     id="path1107"
     style="fill:none;stroke:#000000;stroke-width:1.016886;stroke-linecap:butt;stroke-linejoin:round;stroke-miterlimit:4;stroke-dasharray:none;stroke-opacity:0.25853702"
     d="m 228.047,32.629 c 0,0.484 -0.387,0.875 -0.863,0.875 -0.477,0 -0.864,-0.391 -0.864,-0.875 0,-0.484 0.387,-0.879 0.864,-0.879 0.476,0 0.863,0.395 0.863,0.879 z" /></g><path
   inkscape:connector-curvature="0"
   id="path1109"
   style="fill:#0000ff;fill-opacity:1;fill-rule:nonzero;stroke:none"
   d="m 264.902,82.473 c 0,0.484 -0.386,0.875 -0.863,0.875 -0.477,0 -0.863,-0.391 -0.863,-0.875 0,-0.485 0.386,-0.879 0.863,-0.879 0.477,0 0.863,0.394 0.863,0.879 z" /><g
   id="g1111"
   transform="translate(-4.5,25.5)"><path
     inkscape:connector-curvature="0"
     id="path1113"
     style="fill:none;stroke:#000000;stroke-width:1.016886;stroke-linecap:butt;stroke-linejoin:round;stroke-miterlimit:4;stroke-dasharray:none;stroke-opacity:0.25853702"
     d="m 269.402,56.973 c 0,0.484 -0.386,0.875 -0.863,0.875 -0.477,0 -0.863,-0.391 -0.863,-0.875 0,-0.485 0.386,-0.879 0.863,-0.879 0.477,0 0.863,0.394 0.863,0.879 z" /></g><path
   inkscape:connector-curvature="0"
   id="path1115"
   style="fill:#0000ff;fill-opacity:1;fill-rule:nonzero;stroke:none"
   d="m 286.93,95.82 c 0,0.485 -0.387,0.875 -0.864,0.875 -0.476,0 -0.863,-0.39 -0.863,-0.875 0,-0.484 0.387,-0.875 0.863,-0.875 0.477,0 0.864,0.391 0.864,0.875 z" /><g
   id="g1117"
   transform="translate(-4.5,25.5)"><path
     inkscape:connector-curvature="0"
     id="path1119"
     style="fill:none;stroke:#000000;stroke-width:1.016886;stroke-linecap:butt;stroke-linejoin:round;stroke-miterlimit:4;stroke-dasharray:none;stroke-opacity:0.25853702"
     d="m 291.43,70.32 c 0,0.485 -0.387,0.875 -0.864,0.875 -0.476,0 -0.863,-0.39 -0.863,-0.875 0,-0.484 0.387,-0.875 0.863,-0.875 0.477,0 0.864,0.391 0.864,0.875 z" /></g><path
   inkscape:connector-curvature="0"
   id="path1121"
   style="fill:#0000ff;fill-opacity:1;fill-rule:nonzero;stroke:none"
   d="m 304.32,106.422 c 0,0.484 -0.386,0.875 -0.863,0.875 -0.477,0 -0.863,-0.391 -0.863,-0.875 0,-0.484 0.386,-0.879 0.863,-0.879 0.477,0 0.863,0.395 0.863,0.879 z" /><g
   id="g1123"
   transform="translate(-4.5,25.5)"><path
     inkscape:connector-curvature="0"
     id="path1125"
     style="fill:none;stroke:#000000;stroke-width:1.016886;stroke-linecap:butt;stroke-linejoin:round;stroke-miterlimit:4;stroke-dasharray:none;stroke-opacity:0.25853702"
     d="m 308.82,80.922 c 0,0.484 -0.386,0.875 -0.863,0.875 -0.477,0 -0.863,-0.391 -0.863,-0.875 0,-0.484 0.386,-0.879 0.863,-0.879 0.477,0 0.863,0.395 0.863,0.879 z" /></g><path
   inkscape:connector-curvature="0"
   id="path1127"
   style="fill:#0000ff;fill-opacity:1;fill-rule:nonzero;stroke:none"
   d="m 218.297,65.02 4.394,-7.243" /><g
   id="g1129"
   transform="translate(-4.5,25.5)"><path
     inkscape:connector-curvature="0"
     id="path1131"
     style="fill:none;stroke:#0000ff;stroke-width:0.33718899;stroke-linecap:butt;stroke-linejoin:miter;stroke-miterlimit:4;stroke-dasharray:0.674377, 0.674377;stroke-dashoffset:0;stroke-opacity:0.453659"
     d="m 222.797,39.52 4.394,-7.243" /></g><path
   inkscape:connector-curvature="0"
   id="path1133"
   style="fill:#0000ff;fill-opacity:1;fill-rule:evenodd;stroke:none"
   d="m 221.992,58.934 0.227,0.925 0.648,-2.367 -1.801,1.668 z" /><g
   transform="matrix(-0.606964,1,-1,-0.606964,-4.5,25.5)"
   id="g1135"><path
     inkscape:connector-curvature="0"
     id="path1137"
     style="fill:none;stroke:#0000ff;stroke-width:0.153732;stroke-linecap:butt;stroke-linejoin:miter;stroke-miterlimit:4;stroke-dasharray:none;stroke-opacity:0.453659"
     d="m -76.029,-180.345 0.576,-0.576 -2.018,0.576 2.018,0.576 z" /></g><path
   inkscape:connector-curvature="0"
   id="path1139"
   style="fill:#0000ff;fill-opacity:1;fill-rule:nonzero;stroke:none"
   d="m 260.766,88.082 3.582,-5.988" /><g
   id="g1141"
   transform="translate(-4.5,25.5)"><path
     inkscape:connector-curvature="0"
     id="path1143"
     style="fill:none;stroke:#0000ff;stroke-width:0.46278599;stroke-linecap:butt;stroke-linejoin:miter;stroke-miterlimit:4;stroke-dasharray:0.925571, 0.925571;stroke-dashoffset:0;stroke-opacity:0.453659"
     d="m 265.266,62.582 3.582,-5.988" /></g><path
   inkscape:connector-curvature="0"
   id="path1145"
   style="fill:#0000ff;fill-opacity:1;fill-rule:evenodd;stroke:none"
   d="m 263.395,83.684 0.32,1.269 0.867,-3.254 -2.457,2.305 z" /><g
   transform="matrix(-0.597954,1,-1,-0.597954,-4.5,25.5)"
   id="g1147"><path
     inkscape:connector-curvature="0"
     id="path1149"
     style="fill:none;stroke:#0000ff;stroke-width:0.21183699;stroke-linecap:butt;stroke-linejoin:miter;stroke-miterlimit:4;stroke-dasharray:none;stroke-opacity:0.453659"
     d="m -75.139,-222.965 0.794,-0.795 -2.779,0.794 2.78,0.795 z" /></g><path
   inkscape:connector-curvature="0"
   id="path1151"
   style="fill:#0000ff;fill-opacity:1;fill-rule:nonzero;stroke:none"
   d="m 298.699,114.613 4.621,-7.875" /><g
   id="g1153"
   transform="translate(-4.5,25.5)"><path
     inkscape:connector-curvature="0"
     id="path1155"
     style="fill:none;stroke:#0000ff;stroke-width:0.376791;stroke-linecap:butt;stroke-linejoin:miter;stroke-miterlimit:4;stroke-dasharray:0.753583, 0.753583;stroke-dashoffset:0;stroke-opacity:0.453659"
     d="m 303.199,89.113 4.621,-7.875" /></g><path
   inkscape:connector-curvature="0"
   id="path1157"
   style="fill:#0000ff;fill-opacity:1;fill-rule:evenodd;stroke:none"
   d="m 302.559,108.035 0.269,1.031 0.684,-2.656 -1.985,1.895 z" /><g
   transform="matrix(-0.586755,1,-1,-0.586755,-4.5,25.5)"
   id="g1159"><path
     inkscape:connector-curvature="0"
     id="path1161"
     style="fill:none;stroke:#0000ff;stroke-width:0.17332201;stroke-linecap:butt;stroke-linejoin:miter;stroke-miterlimit:4;stroke-dasharray:none;stroke-opacity:0.453659"
     d="m -72.628,-264.444 0.649,-0.65 -2.274,0.651 2.275,0.649 z" /></g><path
   inkscape:connector-curvature="0"
   id="path1163"
   style="fill:#0000ff;fill-opacity:1;fill-rule:nonzero;stroke:none"
   d="m 242.227,69.645 c 0,0.484 -0.387,0.878 -0.864,0.878 -0.476,0 -0.863,-0.394 -0.863,-0.878 0,-0.485 0.387,-0.875 0.863,-0.875 0.477,0 0.864,0.39 0.864,0.875 z" /><g
   id="g1165"
   transform="translate(-4.5,25.5)"><path
     inkscape:connector-curvature="0"
     id="path1167"
     style="fill:none;stroke:#000000;stroke-width:1.016886;stroke-linecap:butt;stroke-linejoin:round;stroke-miterlimit:4;stroke-dasharray:none;stroke-opacity:0.25853702"
     d="m 246.727,44.145 c 0,0.484 -0.387,0.878 -0.864,0.878 -0.476,0 -0.863,-0.394 -0.863,-0.878 0,-0.485 0.387,-0.875 0.863,-0.875 0.477,0 0.864,0.39 0.864,0.875 z" /></g><path
   inkscape:connector-curvature="0"
   id="path1169"
   style="fill:#0000ff;fill-opacity:1;fill-rule:nonzero;stroke:none"
   d="m 81.664,227.918 c 0,0.602 -0.488,1.094 -1.086,1.094 -0.601,0 -1.086,-0.492 -1.086,-1.094 0,-0.606 0.485,-1.094 1.086,-1.094 0.598,0 1.086,0.488 1.086,1.094 z" /><g
   id="g1171"
   transform="translate(-4.5,1.5)"><path
     inkscape:connector-curvature="0"
     id="path1173"
     style="fill:none;stroke:#000000;stroke-width:1.27353895;stroke-linecap:butt;stroke-linejoin:round;stroke-miterlimit:4;stroke-dasharray:none;stroke-opacity:0.25853702"
     d="m 86.164,226.418 c 0,0.602 -0.488,1.094 -1.086,1.094 -0.601,0 -1.086,-0.492 -1.086,-1.094 0,-0.606 0.485,-1.094 1.086,-1.094 0.598,0 1.086,0.488 1.086,1.094 z" /></g><path
   inkscape:connector-curvature="0"
   id="path1175"
   style="fill:#0000ff;fill-opacity:1;fill-rule:nonzero;stroke:none"
   d="m 100.926,228.02 c 0,0.601 -0.488,1.093 -1.086,1.093 -0.602,0 -1.086,-0.492 -1.086,-1.093 0,-0.606 0.484,-1.094 1.086,-1.094 0.598,0 1.086,0.488 1.086,1.094 z" /><g
   id="g1177"
   transform="translate(-4.5,1.5)"><path
     inkscape:connector-curvature="0"
     id="path1179"
     style="fill:none;stroke:#000000;stroke-width:1.27353895;stroke-linecap:butt;stroke-linejoin:round;stroke-miterlimit:4;stroke-dasharray:none;stroke-opacity:0.25853702"
     d="m 105.426,226.52 c 0,0.601 -0.488,1.093 -1.086,1.093 -0.602,0 -1.086,-0.492 -1.086,-1.093 0,-0.606 0.484,-1.094 1.086,-1.094 0.598,0 1.086,0.488 1.086,1.094 z" /></g><path
   inkscape:connector-curvature="0"
   id="path1181"
   style="fill:#0000ff;fill-opacity:1;fill-rule:nonzero;stroke:none"
   d="m 121.133,228.484 c 0,0.606 -0.485,1.094 -1.086,1.094 -0.598,0 -1.086,-0.488 -1.086,-1.094 0,-0.601 0.488,-1.089 1.086,-1.089 0.601,0 1.086,0.488 1.086,1.089 z" /><g
   id="g1183"
   transform="translate(-4.5,1.5)"><path
     inkscape:connector-curvature="0"
     id="path1185"
     style="fill:none;stroke:#000000;stroke-width:1.27353895;stroke-linecap:butt;stroke-linejoin:round;stroke-miterlimit:4;stroke-dasharray:none;stroke-opacity:0.25853702"
     d="m 125.633,226.984 c 0,0.606 -0.485,1.094 -1.086,1.094 -0.598,0 -1.086,-0.488 -1.086,-1.094 0,-0.601 0.488,-1.089 1.086,-1.089 0.601,0 1.086,0.488 1.086,1.089 z" /></g><path
   inkscape:connector-curvature="0"
   id="path1187"
   style="fill:#0000ff;fill-opacity:1;fill-rule:nonzero;stroke:none"
   d="m 143.363,228.484 c 0,0.606 -0.488,1.094 -1.086,1.094 -0.601,0 -1.086,-0.488 -1.086,-1.094 0,-0.601 0.485,-1.089 1.086,-1.089 0.598,0 1.086,0.488 1.086,1.089 z" /><g
   id="g1189"
   transform="translate(-4.5,1.5)"><path
     inkscape:connector-curvature="0"
     id="path1191"
     style="fill:none;stroke:#000000;stroke-width:1.27353895;stroke-linecap:butt;stroke-linejoin:round;stroke-miterlimit:4;stroke-dasharray:none;stroke-opacity:0.25853702"
     d="m 147.863,226.984 c 0,0.606 -0.488,1.094 -1.086,1.094 -0.601,0 -1.086,-0.488 -1.086,-1.094 0,-0.601 0.485,-1.089 1.086,-1.089 0.598,0 1.086,0.488 1.086,1.089 z" /></g><path
   inkscape:connector-curvature="0"
   id="path1193"
   style="fill:#0000ff;fill-opacity:1;fill-rule:nonzero;stroke:none"
   d="m 156.078,228.371 c 0,0.602 -0.484,1.094 -1.082,1.094 -0.601,0 -1.086,-0.492 -1.086,-1.094 0,-0.605 0.485,-1.094 1.086,-1.094 0.598,0 1.082,0.489 1.082,1.094 z" /><g
   id="g1195"
   transform="translate(-4.5,1.5)"><path
     inkscape:connector-curvature="0"
     id="path1197"
     style="fill:none;stroke:#000000;stroke-width:1.27353895;stroke-linecap:butt;stroke-linejoin:round;stroke-miterlimit:4;stroke-dasharray:none;stroke-opacity:0.25853702"
     d="m 160.578,226.871 c 0,0.602 -0.484,1.094 -1.082,1.094 -0.601,0 -1.086,-0.492 -1.086,-1.094 0,-0.605 0.485,-1.094 1.086,-1.094 0.598,0 1.082,0.489 1.082,1.094 z" /></g><g
   id="g1199"
   transform="translate(-4.5,1.5)"><path
     inkscape:connector-curvature="0"
     id="path1201"
     style="fill:none;stroke:#000000;stroke-width:0.28341699;stroke-linecap:butt;stroke-linejoin:miter;stroke-miterlimit:4;stroke-dasharray:0.566835, 0.283417;stroke-dashoffset:0;stroke-opacity:0.565854"
     d="m 85.301,191.039 0.113,35.426" /></g><g
   id="g1203"
   transform="translate(-4.5,1.5)"><path
     inkscape:connector-curvature="0"
     id="path1205"
     style="fill:none;stroke:#000000;stroke-width:0.28341699;stroke-linecap:butt;stroke-linejoin:miter;stroke-miterlimit:4;stroke-dasharray:0.566835, 0.283417;stroke-dashoffset:0;stroke-opacity:0.565854"
     d="m 104.258,204.363 -0.098,21.934" /></g><g
   id="g1207"
   transform="translate(-4.5,1.5)"><path
     inkscape:connector-curvature="0"
     id="path1209"
     style="fill:none;stroke:#000000;stroke-width:0.28341699;stroke-linecap:butt;stroke-linejoin:miter;stroke-miterlimit:4;stroke-dasharray:0.566835, 0.283417;stroke-dashoffset:0;stroke-opacity:0.565854"
     d="m 124.312,197.672 0.126,28.738" /></g><g
   id="g1211"
   transform="translate(-4.5,1.5)"><path
     inkscape:connector-curvature="0"
     id="path1213"
     style="fill:none;stroke:#000000;stroke-width:0.28341699;stroke-linecap:butt;stroke-linejoin:miter;stroke-miterlimit:4;stroke-dasharray:0.566835, 0.283417;stroke-dashoffset:0;stroke-opacity:0.565854"
     d="m 146.547,214.406 0.117,12.465" /></g><g
   id="g1215"
   transform="translate(-4.5,1.5)"><path
     inkscape:connector-curvature="0"
     id="path1217"
     style="fill:none;stroke:#000000;stroke-width:0.28341699;stroke-linecap:butt;stroke-linejoin:miter;stroke-miterlimit:4;stroke-dasharray:0.566835, 0.283417;stroke-dashoffset:0;stroke-opacity:0.565854"
     d="m 159.465,202.52 0.195,24.355" /></g><g
   id="g1889"
   ns1:jacobian_sqrt="1.333333"
   inkscapeversion="0.92.4"
   ns1:alignment="middle center"
   ns1:scale="1.0"
   ns1:preamble="/home/francesco/Projects/SISSA/kernel-as-dg/preamble.tex"
   ns1:text="$\\mathcal{X}\\subset\\mathbb{R}^{m}$\n\n"
   ns1:pdfconverter="pdf2svg"
   ns1:texconverter="pdflatex"
   ns1:version="0.11.1"
   transform="matrix(1.1423128,0,0,1.100559,-137.49551,-66.729195)"><g
   id="surface1">
<g
   id="g1874"
   style="fill:#000000;fill-opacity:1">
  <path
   id="path1872"
   transform="translate(148.712,134.765)"
   d="M 4.78125,-5.5 C 4.6875,-6.234375 4.59375,-6.8125 3.890625,-6.8125 c -0.9375,0 -1.59375,0.6875 -1.59375,0.953125 0,0.078125 0.0625,0.078125 0.109375,0.078125 0.109375,0 0.546875,-0.125 0.734375,-0.46875 L 3.15625,-6.265625 c 0.546875,0 0.6875,0.3125 0.78125,1.34375 l 0.140625,1.46875 c -0.359375,0.1875 -1.703125,1 -2.421875,1.5 C 0.515625,-1.140625 0.5,-0.84375 0.5,-0.5625 0.5,-0.21875 0.671875,0 0.984375,0 c 0.296875,0 0.75,-0.328125 0.75,-0.484375 0,-0.046875 -0.03125,-0.046875 -0.0625,-0.0625 C 1.578125,-0.5625 1.34375,-0.59375 1.34375,-0.984375 c 0,-0.265625 0,-0.390625 1.0625,-1.09375 0.609375,-0.40625 1.1875,-0.71875 1.703125,-1.046875 0,0.015625 0.140625,1.515625 0.171875,1.671875 C 4.359375,-0.65625 4.421875,0 5.15625,0 c 0.953125,0 1.609375,-0.671875 1.609375,-0.953125 0,-0.078125 -0.0625,-0.078125 -0.109375,-0.078125 -0.109375,0 -0.546875,0.140625 -0.734375,0.46875 -0.03125,0.015625 -0.078125,0.015625 -0.09375,0.015625 -0.578125,0 -0.640625,-0.625 -0.71875,-1.46875 C 5.078125,-2.328125 5.046875,-2.59375 4.953125,-3.625 8.0625,-5.484375 8.0625,-5.828125 8.0625,-6.25 c 0,-0.34375 -0.1875,-0.5625 -0.46875,-0.5625 -0.3125,0 -0.78125,0.34375 -0.78125,0.484375 0,0.0625 0.0625,0.0625 0.078125,0.0625 0.078125,0.015625 0.3125,0.0625 0.3125,0.4375 0,0.25 -0.03125,0.40625 -0.875,0.984375 -0.296875,0.203125 -0.71875,0.453125 -1.40625,0.875 z m 0,0"
   style="stroke:none;stroke-width:0"
   inkscape:connector-curvature="0" />
</g>
<g
   id="g1878"
   style="fill:#000000;fill-opacity:1">
  <path
   id="path1876"
   transform="translate(160.04246,134.765)"
   d="m 6.5625,-4.984375 c 0.171875,0 0.359375,0 0.359375,-0.203125 0,-0.203125 -0.1875,-0.203125 -0.359375,-0.203125 H 3.890625 c -1.703125,0 -3.0625,1.296875 -3.0625,2.890625 0,1.609375 1.359375,2.90625 3.0625,2.90625 H 6.5625 c 0.171875,0 0.359375,0 0.359375,-0.203125 C 6.921875,0 6.734375,0 6.5625,0 H 3.90625 c -1.546875,0 -2.6875,-1.15625 -2.6875,-2.5 0,-1.328125 1.140625,-2.484375 2.6875,-2.484375 z m 0,0"
   style="stroke:none;stroke-width:0"
   inkscape:connector-curvature="0" />
</g>
<g
   id="g1882"
   style="fill:#000000;fill-opacity:1">
  <path
   id="path1880"
   transform="translate(170.561,134.765)"
   d="M 2.671875,-3.125 H 3.03125 l 1.5,2.3125 C 4.625,-0.65625 4.859375,-0.265625 4.96875,-0.125 5.046875,0 5.078125,0 5.296875,0 h 1.375 c 0.1875,0 0.34375,0 0.34375,-0.171875 0,-0.09375 -0.0625,-0.15625 -0.15625,-0.171875 C 6.484375,-0.421875 6,-1.09375 5.765625,-1.40625 5.6875,-1.5 5.1875,-2.15625 4.53125,-3.234375 5.40625,-3.40625 6.265625,-3.78125 6.265625,-4.96875 6.265625,-6.34375 4.8125,-6.828125 3.625,-6.828125 H 0.5 c -0.1875,0 -0.34375,0 -0.34375,0.171875 0,0.171875 0.1875,0.171875 0.265625,0.171875 0.578125,0 0.625,0.078125 0.625,0.578125 v 4.984375 c 0,0.5 -0.046875,0.578125 -0.625,0.578125 -0.078125,0 -0.265625,0 -0.265625,0.171875 C 0.15625,0 0.3125,0 0.5,0 H 3.234375 C 3.40625,0 3.5625,0 3.5625,-0.171875 c 0,-0.171875 -0.171875,-0.171875 -0.28125,-0.171875 -0.5625,0 -0.609375,-0.078125 -0.609375,-0.578125 z m 1.921875,-0.5 c 0.28125,-0.359375 0.3125,-0.890625 0.3125,-1.328125 0,-0.484375 -0.0625,-1.015625 -0.375,-1.421875 0.40625,0.09375 1.390625,0.40625 1.390625,1.40625 0,0.65625 -0.296875,1.15625 -1.328125,1.34375 z M 2.671875,-5.9375 c 0,-0.21875 0,-0.546875 0.625,-0.546875 0.84375,0 1.265625,0.359375 1.265625,1.53125 0,1.28125 -0.3125,1.46875 -1.890625,1.46875 z M 1.3125,-0.34375 C 1.390625,-0.53125 1.390625,-0.8125 1.390625,-0.890625 V -5.9375 c 0,-0.09375 0,-0.359375 -0.078125,-0.546875 h 1.140625 c -0.125,0.171875 -0.125,0.359375 -0.125,0.515625 v 5.078125 c 0,0.09375 0,0.359375 0.078125,0.546875 z M 3.4375,-3.125 c 0.078125,-0.015625 0.109375,-0.03125 0.1875,-0.03125 0.15625,0 0.375,-0.015625 0.515625,-0.03125 0.15625,0.234375 1.234375,2.015625 2.0625,2.84375 h -0.96875 z m 0,0"
   style="stroke:none;stroke-width:0"
   inkscape:connector-curvature="0" />
</g>
<g
   id="g1886"
   style="fill:#000000;fill-opacity:1">
  <path
   id="path1884"
   transform="translate(177.756,131.15)"
   d="m 3.03125,-0.5625 c -0.046875,0.140625 -0.109375,0.375 -0.109375,0.40625 0,0.15625 0.125,0.21875 0.234375,0.21875 0.140625,0 0.25,-0.078125 0.28125,-0.140625 0.03125,-0.0625 0.09375,-0.296875 0.125,-0.4375 0.03125,-0.125 0.109375,-0.453125 0.15625,-0.625 0.03125,-0.15625 0.078125,-0.3125 0.109375,-0.46875 0.078125,-0.296875 0.078125,-0.3125 0.21875,-0.53125 C 4.265625,-2.484375 4.625,-2.875 5.15625,-2.875 c 0.390625,0 0.421875,0.3125 0.421875,0.484375 0,0.421875 -0.296875,1.1875 -0.421875,1.484375 -0.0625,0.203125 -0.09375,0.265625 -0.09375,0.375 0,0.375 0.296875,0.59375 0.65625,0.59375 0.703125,0 1,-0.953125 1,-1.0625 0,-0.09375 -0.078125,-0.09375 -0.109375,-0.09375 -0.09375,0 -0.09375,0.046875 -0.125,0.125 C 6.328125,-0.40625 6.015625,-0.125 5.75,-0.125 c -0.15625,0 -0.1875,-0.09375 -0.1875,-0.25 0,-0.15625 0.046875,-0.25 0.171875,-0.5625 0.078125,-0.21875 0.359375,-0.953125 0.359375,-1.34375 0,-0.109375 0,-0.40625 -0.25,-0.609375 -0.125,-0.078125 -0.328125,-0.1875 -0.65625,-0.1875 -0.625,0 -1,0.421875 -1.234375,0.703125 C 3.90625,-2.96875 3.40625,-3.078125 3.046875,-3.078125 2.46875,-3.078125 2.078125,-2.71875 1.875,-2.4375 1.828125,-2.921875 1.421875,-3.078125 1.125,-3.078125 c -0.296875,0 -0.453125,0.21875 -0.546875,0.375 -0.15625,0.265625 -0.25,0.65625 -0.25,0.703125 0,0.078125 0.09375,0.078125 0.125,0.078125 0.09375,0 0.09375,-0.015625 0.140625,-0.203125 0.109375,-0.40625 0.25,-0.75 0.515625,-0.75 0.1875,0 0.234375,0.15625 0.234375,0.34375 0,0.125 -0.0625,0.390625 -0.125,0.578125 -0.046875,0.1875 -0.109375,0.46875 -0.140625,0.625 L 0.84375,-0.4375 c -0.015625,0.09375 -0.0625,0.265625 -0.0625,0.28125 0,0.15625 0.125,0.21875 0.234375,0.21875 0.125,0 0.234375,-0.078125 0.28125,-0.140625 0.03125,-0.0625 0.078125,-0.296875 0.125,-0.4375 0.03125,-0.125 0.109375,-0.453125 0.140625,-0.625 0.046875,-0.15625 0.09375,-0.3125 0.125,-0.46875 0.078125,-0.28125 0.09375,-0.34375 0.296875,-0.625 C 2.171875,-2.515625 2.5,-2.875 3.03125,-2.875 c 0.390625,0 0.40625,0.359375 0.40625,0.484375 0,0.171875 -0.015625,0.265625 -0.125,0.65625 z m 0,0"
   style="stroke:none;stroke-width:0"
   inkscape:connector-curvature="0" />
</g>
</g>
</g><text
   xml:space="preserve"
   style="font-style:normal;font-weight:normal;font-size:6px;line-height:1.25;font-family:sans-serif;letter-spacing:0px;word-spacing:0px;fill:#000000;fill-opacity:1;stroke:none;stroke-width:0.75"
   x="111.31196"
   y="45.271606"
   id="text2189"><tspan
     sodipodi:role="line"
     id="tspan2187"
     x="111.31196"
     y="45.271606"
     style="font-size:6px;stroke-width:0.75">Feature space</tspan><tspan
     sodipodi:role="line"
     x="111.31196"
     y="52.771606"
     style="font-size:6px;stroke-width:0.75"
     id="tspan2191">mapping</tspan></text>




<g
   id="g2429"
   ns1:jacobian_sqrt="1.333333"
   inkscapeversion="0.92.4"
   ns1:alignment="middle center"
   ns1:scale="1.0"
   ns1:preamble="/home/francesco/Projects/SISSA/kernel-as-dg/preamble.tex"
   ns1:text="$\\phi(\\mathcal{X})\\subset\\mathbb{H}$\n"
   ns1:pdfconverter="pdf2svg"
   ns1:texconverter="pdflatex"
   ns1:version="0.11.1"
   transform="matrix(0.83769199,0,0,0.91591842,99.770547,-85.948259)"><g
   id="g2427">
<g
   id="g2405"
   style="fill:#000000;fill-opacity:1">
  <path
   id="path2403"
   transform="translate(148.712,134.765)"
   d="m 4.359375,-6.671875 c 0,-0.03125 0.03125,-0.140625 0.03125,-0.140625 0,-0.015625 0,-0.109375 -0.125,-0.109375 -0.09375,0 -0.109375,0.03125 -0.15625,0.203125 L 3.53125,-4.421875 c -1.578125,0.0625 -3.046875,1.375 -3.046875,2.734375 0,0.953125 0.703125,1.734375 1.921875,1.8125 C 2.328125,0.421875 2.25,0.75 2.171875,1.0625 c -0.125,0.46875 -0.21875,0.84375 -0.21875,0.875 0,0.09375 0.078125,0.109375 0.125,0.109375 C 2.125,2.046875 2.140625,2.03125 2.171875,2 2.1875,1.984375 2.25,1.75 2.28125,1.609375 L 2.65625,0.125 c 1.609375,-0.0625 3.0625,-1.40625 3.0625,-2.734375 0,-0.796875 -0.53125,-1.703125 -1.921875,-1.8125 z m -1.90625,6.578125 c -0.59375,-0.03125 -1.3125,-0.390625 -1.3125,-1.375 0,-1.203125 0.859375,-2.59375 2.34375,-2.734375 z m 1.28125,-4.109375 c 0.765625,0.046875 1.328125,0.5 1.328125,1.375 0,1.1875 -0.859375,2.609375 -2.34375,2.734375 z m 0,0"
   style="stroke:none;stroke-width:0"
   inkscape:connector-curvature="0" />
</g>
<g
   id="g2409"
   style="fill:#000000;fill-opacity:1">
  <path
   id="path2407"
   transform="translate(154.648,134.765)"
   d="m 3.296875,2.390625 c 0,-0.03125 0,-0.046875 -0.171875,-0.21875 C 1.890625,0.921875 1.5625,-0.96875 1.5625,-2.5 c 0,-1.734375 0.375,-3.46875 1.609375,-4.703125 0.125,-0.125 0.125,-0.140625 0.125,-0.171875 0,-0.078125 -0.03125,-0.109375 -0.09375,-0.109375 -0.109375,0 -1,0.6875 -1.59375,1.953125 -0.5,1.09375 -0.625,2.203125 -0.625,3.03125 0,0.78125 0.109375,1.984375 0.65625,3.125 C 2.25,1.84375 3.09375,2.5 3.203125,2.5 c 0.0625,0 0.09375,-0.03125 0.09375,-0.109375 z m 0,0"
   style="stroke:none;stroke-width:0"
   inkscape:connector-curvature="0" />
</g>
<g
   id="g2413"
   style="fill:#000000;fill-opacity:1">
  <path
   id="path2411"
   transform="translate(158.523,134.765)"
   d="M 4.78125,-5.5 C 4.6875,-6.234375 4.59375,-6.8125 3.890625,-6.8125 c -0.9375,0 -1.59375,0.6875 -1.59375,0.953125 0,0.078125 0.0625,0.078125 0.109375,0.078125 0.109375,0 0.546875,-0.125 0.734375,-0.46875 L 3.15625,-6.265625 c 0.546875,0 0.6875,0.3125 0.78125,1.34375 l 0.140625,1.46875 c -0.359375,0.1875 -1.703125,1 -2.421875,1.5 C 0.515625,-1.140625 0.5,-0.84375 0.5,-0.5625 0.5,-0.21875 0.671875,0 0.984375,0 c 0.296875,0 0.75,-0.328125 0.75,-0.484375 0,-0.046875 -0.03125,-0.046875 -0.0625,-0.0625 C 1.578125,-0.5625 1.34375,-0.59375 1.34375,-0.984375 c 0,-0.265625 0,-0.390625 1.0625,-1.09375 0.609375,-0.40625 1.1875,-0.71875 1.703125,-1.046875 0,0.015625 0.140625,1.515625 0.171875,1.671875 C 4.359375,-0.65625 4.421875,0 5.15625,0 c 0.953125,0 1.609375,-0.671875 1.609375,-0.953125 0,-0.078125 -0.0625,-0.078125 -0.109375,-0.078125 -0.109375,0 -0.546875,0.140625 -0.734375,0.46875 -0.03125,0.015625 -0.078125,0.015625 -0.09375,0.015625 -0.578125,0 -0.640625,-0.625 -0.71875,-1.46875 C 5.078125,-2.328125 5.046875,-2.59375 4.953125,-3.625 8.0625,-5.484375 8.0625,-5.828125 8.0625,-6.25 c 0,-0.34375 -0.1875,-0.5625 -0.46875,-0.5625 -0.3125,0 -0.78125,0.34375 -0.78125,0.484375 0,0.0625 0.0625,0.0625 0.078125,0.0625 0.078125,0.015625 0.3125,0.0625 0.3125,0.4375 0,0.25 -0.03125,0.40625 -0.875,0.984375 -0.296875,0.203125 -0.71875,0.453125 -1.40625,0.875 z m 0,0"
   style="stroke:none;stroke-width:0"
   inkscape:connector-curvature="0" />
</g>
<g
   id="g2417"
   style="fill:#000000;fill-opacity:1">
  <path
   id="path2415"
   transform="translate(167.088,134.765)"
   d="m 2.875,-2.5 c 0,-0.765625 -0.109375,-1.96875 -0.65625,-3.109375 -0.59375,-1.21875 -1.453125,-1.875 -1.546875,-1.875 -0.0625,0 -0.109375,0.046875 -0.109375,0.109375 0,0.03125 0,0.046875 0.1875,0.234375 0.984375,0.984375 1.546875,2.5625 1.546875,4.640625 0,1.71875 -0.359375,3.46875 -1.59375,4.71875 C 0.5625,2.34375 0.5625,2.359375 0.5625,2.390625 0.5625,2.453125 0.609375,2.5 0.671875,2.5 0.765625,2.5 1.671875,1.8125 2.25,0.546875 2.765625,-0.546875 2.875,-1.65625 2.875,-2.5 Z m 0,0"
   style="stroke:none;stroke-width:0"
   inkscape:connector-curvature="0" />
</g>
<g
   id="g2421"
   style="fill:#000000;fill-opacity:1">
  <path
   id="path2419"
   transform="translate(173.73,134.765)"
   d="m 6.5625,-4.984375 c 0.171875,0 0.359375,0 0.359375,-0.203125 0,-0.203125 -0.1875,-0.203125 -0.359375,-0.203125 H 3.890625 c -1.703125,0 -3.0625,1.296875 -3.0625,2.890625 0,1.609375 1.359375,2.90625 3.0625,2.90625 H 6.5625 c 0.171875,0 0.359375,0 0.359375,-0.203125 C 6.921875,0 6.734375,0 6.5625,0 H 3.90625 c -1.546875,0 -2.6875,-1.15625 -2.6875,-2.5 0,-1.328125 1.140625,-2.484375 2.6875,-2.484375 z m 0,0"
   style="stroke:none;stroke-width:0"
   inkscape:connector-curvature="0" />
</g>
<g
   id="g2425"
   style="fill:#000000;fill-opacity:1">
  <path
   id="path2423"
   transform="translate(184.246,134.765)"
   d="m 6.703125,-5.90625 c 0,-0.5 0.046875,-0.578125 0.625,-0.578125 0.09375,0 0.265625,0 0.265625,-0.171875 0,-0.171875 -0.15625,-0.171875 -0.34375,-0.171875 H 4.546875 c -0.1875,0 -0.34375,0 -0.34375,0.171875 0,0.171875 0.1875,0.171875 0.265625,0.171875 0.578125,0 0.609375,0.078125 0.609375,0.578125 v 2.21875 h -2.40625 v -2.21875 c 0,-0.5 0.046875,-0.578125 0.625,-0.578125 0.078125,0 0.25,0 0.25,-0.171875 0,-0.171875 -0.140625,-0.171875 -0.328125,-0.171875 H 0.515625 c -0.1875,0 -0.34375,0 -0.34375,0.171875 0,0.171875 0.1875,0.171875 0.265625,0.171875 0.5625,0 0.609375,0.078125 0.609375,0.578125 v 4.984375 c 0,0.46875 -0.03125,0.578125 -0.5625,0.578125 -0.140625,0 -0.3125,0 -0.3125,0.171875 C 0.171875,0 0.328125,0 0.515625,0 H 3.21875 c 0.1875,0 0.328125,0 0.328125,-0.171875 0,-0.171875 -0.171875,-0.171875 -0.28125,-0.171875 -0.5625,0 -0.59375,-0.09375 -0.59375,-0.578125 v -2.3125 h 2.40625 v 2.3125 c 0,0.46875 -0.03125,0.578125 -0.546875,0.578125 -0.15625,0 -0.328125,0 -0.328125,0.171875 C 4.203125,0 4.359375,0 4.546875,0 H 7.25 c 0.1875,0 0.34375,0 0.34375,-0.171875 0,-0.171875 -0.171875,-0.171875 -0.28125,-0.171875 -0.578125,0 -0.609375,-0.09375 -0.609375,-0.578125 z m -5.3125,-0.03125 c 0,-0.109375 0,-0.359375 -0.078125,-0.546875 h 1.09375 c -0.078125,0.1875 -0.078125,0.4375 -0.078125,0.546875 v 5.046875 c 0,0.109375 0,0.359375 0.078125,0.546875 H 1.3125 c 0.078125,-0.1875 0.078125,-0.4375 0.078125,-0.546875 z m 4.046875,0 c 0,-0.109375 0,-0.359375 -0.078125,-0.546875 H 6.4375 c -0.078125,0.1875 -0.078125,0.4375 -0.078125,0.546875 v 5.046875 c 0,0.109375 0,0.359375 0.078125,0.546875 H 5.359375 C 5.4375,-0.53125 5.4375,-0.78125 5.4375,-0.890625 Z m 0,0"
   style="stroke:none;stroke-width:0"
   inkscape:connector-curvature="0" />
</g>
</g>
</g><text
   xml:space="preserve"
   style="font-style:normal;font-weight:normal;font-size:6px;line-height:1.25;font-family:sans-serif;letter-spacing:0px;word-spacing:0px;fill:#000000;fill-opacity:1;stroke:#0000ff;stroke-width:0.28346458;stroke-miterlimit:4;stroke-dasharray:none"
   x="296.37363"
   y="61.119286"
   id="text2189-3"><tspan
     sodipodi:role="line"
     x="296.37363"
     y="61.119286"
     style="font-size:6px;fill:#000000;stroke:#0000ff;stroke-width:0.28346458;stroke-miterlimit:4;stroke-dasharray:none"
     id="tspan2191-7">Active</tspan><tspan
     sodipodi:role="line"
     x="296.37363"
     y="68.619286"
     style="font-size:6px;fill:#000000;stroke:#0000ff;stroke-width:0.28346458;stroke-miterlimit:4;stroke-dasharray:none"
     id="tspan2470">subspace</tspan></text>



<text
   xml:space="preserve"
   style="font-style:normal;font-weight:normal;font-size:6px;line-height:1.25;font-family:sans-serif;letter-spacing:0px;word-spacing:0px;fill:#000000;fill-opacity:1;stroke:none;stroke-width:0.75"
   x="257.35345"
   y="205.91962"
   id="text2189-5"><tspan
     sodipodi:role="line"
     x="257.35345"
     y="205.91962"
     style="font-size:6px;stroke-width:0.75"
     id="tspan2191-5">Projection</tspan></text>



<text
   xml:space="preserve"
   style="font-style:normal;font-variant:normal;font-weight:normal;font-stretch:normal;font-size:8px;line-height:1.25;font-family:sans-serif;-inkscape-font-specification:'sans-serif, Normal';font-variant-ligatures:normal;font-variant-caps:normal;font-variant-numeric:normal;font-feature-settings:normal;text-align:start;letter-spacing:0px;word-spacing:0px;writing-mode:lr-tb;text-anchor:start;fill:#000000;fill-opacity:1;stroke:none;stroke-width:0.75"
   x="91.233482"
   y="160.33195"
   id="text2189-6"><tspan
     sodipodi:role="line"
     x="91.233482"
     y="160.33195"
     style="font-style:normal;font-variant:normal;font-weight:normal;font-stretch:normal;font-size:8px;font-family:sans-serif;-inkscape-font-specification:'sans-serif, Normal';font-variant-ligatures:normal;font-variant-caps:normal;font-variant-numeric:normal;font-feature-settings:normal;text-align:start;writing-mode:lr-tb;text-anchor:start;stroke-width:0.75"
     id="tspan2191-9">Regression</tspan></text>



<text
   xml:space="preserve"
   style="font-style:normal;font-weight:normal;font-size:6px;line-height:1.25;font-family:sans-serif;letter-spacing:0px;word-spacing:0px;fill:#000000;fill-opacity:1;stroke:none;stroke-width:0.75"
   x="81.362411"
   y="240.74902"
   id="text2189-1"><tspan
     sodipodi:role="line"
     x="81.362411"
     y="240.74902"
     style="font-size:6px;stroke-width:0.75"
     id="tspan2191-70">Active variable</tspan></text>



<g
   id="g2759"
   ns1:jacobian_sqrt="1.333333"
   inkscapeversion="0.92.4"
   ns1:alignment="middle center"
   ns1:scale="1.0"
   ns1:preamble="/home/francesco/Projects/SISSA/kernel-as-dg/preamble.tex"
   ns1:text="$f(x)$\n"
   ns1:pdfconverter="pdf2svg"
   ns1:texconverter="pdflatex"
   ns1:version="0.11.1"
   transform="matrix(1.1212189,0,0,0.99601109,-121.87846,31.693837)"><g
   id="g2757">
<g
   id="g2743"
   style="fill:#000000;fill-opacity:1">
  <path
   id="path2741"
   transform="translate(148.712,134.765)"
   d="m 3.65625,-3.984375 h 0.859375 c 0.203125,0 0.296875,0 0.296875,-0.203125 0,-0.109375 -0.09375,-0.109375 -0.265625,-0.109375 H 3.71875 L 3.921875,-5.4375 c 0.046875,-0.203125 0.1875,-0.90625 0.25,-1.03125 0.078125,-0.1875 0.25,-0.34375 0.46875,-0.34375 0.03125,0 0.296875,0 0.484375,0.1875 -0.4375,0.03125 -0.546875,0.390625 -0.546875,0.53125 0,0.234375 0.1875,0.359375 0.375,0.359375 C 5.21875,-5.734375 5.5,-5.96875 5.5,-6.34375 c 0,-0.453125 -0.453125,-0.6875 -0.859375,-0.6875 -0.34375,0 -0.96875,0.1875 -1.265625,1.171875 -0.0625,0.203125 -0.09375,0.3125 -0.328125,1.5625 h -0.6875 c -0.203125,0 -0.3125,0 -0.3125,0.1875 0,0.125 0.09375,0.125 0.28125,0.125 h 0.65625 L 2.25,-0.046875 c -0.1875,0.96875 -0.359375,1.875 -0.875,1.875 -0.046875,0 -0.28125,0 -0.484375,-0.1875 C 1.359375,1.609375 1.453125,1.25 1.453125,1.109375 1.453125,0.875 1.265625,0.75 1.078125,0.75 0.8125,0.75 0.53125,0.984375 0.53125,1.359375 c 0,0.4375 0.4375,0.6875 0.84375,0.6875 0.546875,0 0.953125,-0.59375 1.125,-0.96875 0.328125,-0.625 0.546875,-1.828125 0.5625,-1.90625 z m 0,0"
   style="stroke:none;stroke-width:0"
   inkscape:connector-curvature="0" />
</g>
<g
   id="g2747"
   style="fill:#000000;fill-opacity:1">
  <path
   id="path2745"
   transform="translate(154.662,134.765)"
   d="m 3.296875,2.390625 c 0,-0.03125 0,-0.046875 -0.171875,-0.21875 C 1.890625,0.921875 1.5625,-0.96875 1.5625,-2.5 c 0,-1.734375 0.375,-3.46875 1.609375,-4.703125 0.125,-0.125 0.125,-0.140625 0.125,-0.171875 0,-0.078125 -0.03125,-0.109375 -0.09375,-0.109375 -0.109375,0 -1,0.6875 -1.59375,1.953125 -0.5,1.09375 -0.625,2.203125 -0.625,3.03125 0,0.78125 0.109375,1.984375 0.65625,3.125 C 2.25,1.84375 3.09375,2.5 3.203125,2.5 c 0.0625,0 0.09375,-0.03125 0.09375,-0.109375 z m 0,0"
   style="stroke:none;stroke-width:0"
   inkscape:connector-curvature="0" />
</g>
<g
   id="g2751"
   style="fill:#000000;fill-opacity:1">
  <path
   id="path2749"
   transform="translate(158.537,134.765)"
   d="M 3.328125,-3.015625 C 3.390625,-3.265625 3.625,-4.1875 4.3125,-4.1875 c 0.046875,0 0.296875,0 0.5,0.125 C 4.53125,-4 4.34375,-3.765625 4.34375,-3.515625 c 0,0.15625 0.109375,0.34375 0.375,0.34375 0.21875,0 0.53125,-0.171875 0.53125,-0.578125 0,-0.515625 -0.578125,-0.65625 -0.921875,-0.65625 -0.578125,0 -0.921875,0.53125 -1.046875,0.75 -0.25,-0.65625 -0.78125,-0.75 -1.078125,-0.75 -1.03125,0 -1.609375,1.28125 -1.609375,1.53125 0,0.109375 0.109375,0.109375 0.125,0.109375 0.078125,0 0.109375,-0.03125 0.125,-0.109375 0.34375,-1.0625 1,-1.3125 1.34375,-1.3125 0.1875,0 0.53125,0.09375 0.53125,0.671875 0,0.3125 -0.171875,0.96875 -0.53125,2.375 -0.15625,0.609375 -0.515625,1.03125 -0.953125,1.03125 -0.0625,0 -0.28125,0 -0.5,-0.125 0.25,-0.0625 0.46875,-0.265625 0.46875,-0.546875 0,-0.265625 -0.21875,-0.34375 -0.359375,-0.34375 -0.3125,0 -0.546875,0.25 -0.546875,0.578125 0,0.453125 0.484375,0.65625 0.921875,0.65625 0.671875,0 1.03125,-0.703125 1.046875,-0.75 0.125,0.359375 0.484375,0.75 1.078125,0.75 1.03125,0 1.59375,-1.28125 1.59375,-1.53125 0,-0.109375 -0.078125,-0.109375 -0.109375,-0.109375 -0.09375,0 -0.109375,0.046875 -0.140625,0.109375 -0.328125,1.078125 -1,1.3125 -1.3125,1.3125 -0.390625,0 -0.546875,-0.3125 -0.546875,-0.65625 0,-0.21875 0.046875,-0.4375 0.15625,-0.875 z m 0,0"
   style="stroke:none;stroke-width:0"
   inkscape:connector-curvature="0" />
</g>
<g
   id="g2755"
   style="fill:#000000;fill-opacity:1">
  <path
   id="path2753"
   transform="translate(164.231,134.765)"
   d="m 2.875,-2.5 c 0,-0.765625 -0.109375,-1.96875 -0.65625,-3.109375 -0.59375,-1.21875 -1.453125,-1.875 -1.546875,-1.875 -0.0625,0 -0.109375,0.046875 -0.109375,0.109375 0,0.03125 0,0.046875 0.1875,0.234375 0.984375,0.984375 1.546875,2.5625 1.546875,4.640625 0,1.71875 -0.359375,3.46875 -1.59375,4.71875 C 0.5625,2.34375 0.5625,2.359375 0.5625,2.390625 0.5625,2.453125 0.609375,2.5 0.671875,2.5 0.765625,2.5 1.671875,1.8125 2.25,0.546875 2.765625,-0.546875 2.875,-1.65625 2.875,-2.5 Z m 0,0"
   style="stroke:none;stroke-width:0"
   inkscape:connector-curvature="0" />
</g>
</g>
</g><g
   id="g3046"
   ns1:jacobian_sqrt="0.933333"
   inkscapeversion="0.92.4"
   ns1:alignment="middle center"
   ns1:scale="0.7"
   ns1:preamble="/home/francesco/Projects/SISSA/kernel-as-dg/preamble.tex"
   ns1:text="$W_{1}^{T}\\phi(x)$\n"
   ns1:pdfconverter="pdf2svg"
   ns1:texconverter="pdflatex"
   ns1:version="0.11.1"
   transform="matrix(0.933333,0,0,0.933333,-8.7200908,115.80216)"><g
   id="g3044">
<g
   id="g3018"
   style="fill:#000000;fill-opacity:1">
  <path
   id="path3016"
   transform="translate(148.712,134.765)"
   d="m 9.140625,-5.65625 c 0.25,-0.4375 0.484375,-0.796875 1.125,-0.84375 0.07813,-0.015625 0.1875,-0.015625 0.1875,-0.203125 0,-0.03125 -0.04687,-0.109375 -0.125,-0.109375 -0.234375,0 -0.515625,0.03125 -0.765625,0.03125 -0.34375,0 -0.703125,-0.03125 -1.046875,-0.03125 -0.046875,0 -0.1875,0 -0.1875,0.1875 0,0.109375 0.09375,0.125 0.15625,0.125 0.234375,0.015625 0.59375,0.09375 0.59375,0.390625 0,0.109375 -0.0625,0.1875 -0.140625,0.328125 L 6.25,-1.09375 5.875,-6.03125 c 0,-0.203125 -0.015625,-0.453125 0.703125,-0.46875 0.171875,0 0.265625,0 0.265625,-0.203125 0,-0.09375 -0.109375,-0.109375 -0.140625,-0.109375 -0.40625,0 -0.828125,0.03125 -1.21875,0.03125 -0.234375,0 -0.8125,-0.03125 -1.046875,-0.03125 -0.0625,0 -0.1875,0 -0.1875,0.203125 C 4.25,-6.5 4.34375,-6.5 4.484375,-6.5 4.921875,-6.5 5,-6.4375 5.015625,-6.25 l 0.0625,0.765625 -2.53125,4.390625 -0.375,-5.046875 c 0,-0.125 0,-0.34375 0.765625,-0.359375 0.09375,0 0.203125,0 0.203125,-0.203125 C 3.140625,-6.8125 3.015625,-6.8125 3,-6.8125 c -0.390625,0 -0.8125,0.03125 -1.21875,0.03125 -0.359375,0 -0.71875,-0.03125 -1.046875,-0.03125 -0.0625,0 -0.1875,0 -0.1875,0.1875 0,0.125 0.09375,0.125 0.25,0.125 0.5,0 0.515625,0.09375 0.53125,0.375 l 0.453125,6.078125 c 0,0.1875 0.015625,0.265625 0.15625,0.265625 0.109375,0 0.140625,-0.0625 0.234375,-0.203125 l 2.9375,-5.09375 0.359375,5.03125 C 5.5,0.171875 5.515625,0.21875 5.625,0.21875 c 0.140625,0 0.203125,-0.09375 0.25,-0.1875 z m 0,0"
   style="stroke:none;stroke-width:0"
   inkscape:connector-curvature="0" />
</g>
<g
   id="g3022"
   style="fill:#000000;fill-opacity:1">
  <path
   id="path3020"
   transform="translate(159.505,131.15)"
   d="m 3.390625,-4.21875 c 0.046875,-0.203125 0.0625,-0.21875 0.21875,-0.234375 0.03125,0 0.265625,0 0.40625,0 0.4375,0 0.609375,0 0.78125,0.046875 0.3125,0.09375 0.328125,0.296875 0.328125,0.546875 0,0.109375 0,0.203125 -0.046875,0.5625 L 5.0625,-3.21875 c 0,0.078125 0.046875,0.109375 0.125,0.109375 0.109375,0 0.109375,-0.0625 0.125,-0.171875 L 5.5,-4.609375 c 0,-0.09375 -0.078125,-0.09375 -0.203125,-0.09375 h -4.28125 c -0.171875,0 -0.1875,0 -0.234375,0.140625 l -0.453125,1.234375 c 0,0.03125 -0.03125,0.09375 -0.03125,0.125 0,0.03125 0.015625,0.09375 0.125,0.09375 0.09375,0 0.09375,-0.03125 0.140625,-0.171875 0.40625,-1.109375 0.640625,-1.171875 1.703125,-1.171875 h 0.28125 c 0.21875,0 0.21875,0 0.21875,0.0625 0,0 0,0.046875 -0.03125,0.140625 L 1.8125,-0.578125 C 1.75,-0.328125 1.734375,-0.25 1,-0.25 c -0.25,0 -0.3125,0 -0.3125,0.15625 C 0.6875,-0.078125 0.703125,0 0.8125,0 1,0 1.21875,-0.015625 1.40625,-0.015625 1.609375,-0.015625 1.8125,-0.03125 2,-0.03125 c 0.203125,0 0.4375,0 0.640625,0.015625 C 2.828125,-0.015625 3.03125,0 3.21875,0 3.28125,0 3.375,0 3.375,-0.15625 3.375,-0.25 3.3125,-0.25 3.09375,-0.25 c -0.125,0 -0.265625,-0.015625 -0.40625,-0.015625 -0.234375,-0.015625 -0.25,-0.046875 -0.25,-0.125 0,-0.0625 0,-0.0625 0.03125,-0.171875 z m 0,0"
   style="stroke:none;stroke-width:0"
   inkscape:connector-curvature="0" />
</g>
<g
   id="g3026"
   style="fill:#000000;fill-opacity:1">
  <path
   id="path3024"
   transform="translate(158.121,137.238)"
   d="m 2.328125,-4.4375 c 0,-0.1875 0,-0.1875 -0.203125,-0.1875 -0.453125,0.4375 -1.078125,0.4375 -1.359375,0.4375 v 0.25 c 0.15625,0 0.625,0 1,-0.1875 v 3.546875 c 0,0.234375 0,0.328125 -0.6875,0.328125 H 0.8125 V 0 c 0.125,0 0.984375,-0.03125 1.234375,-0.03125 0.21875,0 1.09375,0.03125 1.25,0.03125 V -0.25 H 3.03125 c -0.703125,0 -0.703125,-0.09375 -0.703125,-0.328125 z m 0,0"
   style="stroke:none;stroke-width:0"
   inkscape:connector-curvature="0" />
</g>
<g
   id="g3030"
   style="fill:#000000;fill-opacity:1">
  <path
   id="path3028"
   transform="translate(165.781,134.765)"
   d="m 4.359375,-6.671875 c 0,-0.03125 0.03125,-0.140625 0.03125,-0.140625 0,-0.015625 0,-0.109375 -0.125,-0.109375 -0.09375,0 -0.109375,0.03125 -0.15625,0.203125 L 3.53125,-4.421875 c -1.578125,0.0625 -3.046875,1.375 -3.046875,2.734375 0,0.953125 0.703125,1.734375 1.921875,1.8125 C 2.328125,0.421875 2.25,0.75 2.171875,1.0625 c -0.125,0.46875 -0.21875,0.84375 -0.21875,0.875 0,0.09375 0.078125,0.109375 0.125,0.109375 C 2.125,2.046875 2.140625,2.03125 2.171875,2 2.1875,1.984375 2.25,1.75 2.28125,1.609375 L 2.65625,0.125 c 1.609375,-0.0625 3.0625,-1.40625 3.0625,-2.734375 0,-0.796875 -0.53125,-1.703125 -1.921875,-1.8125 z m -1.90625,6.578125 c -0.59375,-0.03125 -1.3125,-0.390625 -1.3125,-1.375 0,-1.203125 0.859375,-2.59375 2.34375,-2.734375 z m 1.28125,-4.109375 c 0.765625,0.046875 1.328125,0.5 1.328125,1.375 0,1.1875 -0.859375,2.609375 -2.34375,2.734375 z m 0,0"
   style="stroke:none;stroke-width:0"
   inkscape:connector-curvature="0" />
</g>
<g
   id="g3034"
   style="fill:#000000;fill-opacity:1">
  <path
   id="path3032"
   transform="translate(171.717,134.765)"
   d="m 3.296875,2.390625 c 0,-0.03125 0,-0.046875 -0.171875,-0.21875 C 1.890625,0.921875 1.5625,-0.96875 1.5625,-2.5 c 0,-1.734375 0.375,-3.46875 1.609375,-4.703125 0.125,-0.125 0.125,-0.140625 0.125,-0.171875 0,-0.078125 -0.03125,-0.109375 -0.09375,-0.109375 -0.109375,0 -1,0.6875 -1.59375,1.953125 -0.5,1.09375 -0.625,2.203125 -0.625,3.03125 0,0.78125 0.109375,1.984375 0.65625,3.125 C 2.25,1.84375 3.09375,2.5 3.203125,2.5 c 0.0625,0 0.09375,-0.03125 0.09375,-0.109375 z m 0,0"
   style="stroke:none;stroke-width:0"
   inkscape:connector-curvature="0" />
</g>
<g
   id="g3038"
   style="fill:#000000;fill-opacity:1">
  <path
   id="path3036"
   transform="translate(175.592,134.765)"
   d="M 3.328125,-3.015625 C 3.390625,-3.265625 3.625,-4.1875 4.3125,-4.1875 c 0.046875,0 0.296875,0 0.5,0.125 C 4.53125,-4 4.34375,-3.765625 4.34375,-3.515625 c 0,0.15625 0.109375,0.34375 0.375,0.34375 0.21875,0 0.53125,-0.171875 0.53125,-0.578125 0,-0.515625 -0.578125,-0.65625 -0.921875,-0.65625 -0.578125,0 -0.921875,0.53125 -1.046875,0.75 -0.25,-0.65625 -0.78125,-0.75 -1.078125,-0.75 -1.03125,0 -1.609375,1.28125 -1.609375,1.53125 0,0.109375 0.109375,0.109375 0.125,0.109375 0.078125,0 0.109375,-0.03125 0.125,-0.109375 0.34375,-1.0625 1,-1.3125 1.34375,-1.3125 0.1875,0 0.53125,0.09375 0.53125,0.671875 0,0.3125 -0.171875,0.96875 -0.53125,2.375 -0.15625,0.609375 -0.515625,1.03125 -0.953125,1.03125 -0.0625,0 -0.28125,0 -0.5,-0.125 0.25,-0.0625 0.46875,-0.265625 0.46875,-0.546875 0,-0.265625 -0.21875,-0.34375 -0.359375,-0.34375 -0.3125,0 -0.546875,0.25 -0.546875,0.578125 0,0.453125 0.484375,0.65625 0.921875,0.65625 0.671875,0 1.03125,-0.703125 1.046875,-0.75 0.125,0.359375 0.484375,0.75 1.078125,0.75 1.03125,0 1.59375,-1.28125 1.59375,-1.53125 0,-0.109375 -0.078125,-0.109375 -0.109375,-0.109375 -0.09375,0 -0.109375,0.046875 -0.140625,0.109375 -0.328125,1.078125 -1,1.3125 -1.3125,1.3125 -0.390625,0 -0.546875,-0.3125 -0.546875,-0.65625 0,-0.21875 0.046875,-0.4375 0.15625,-0.875 z m 0,0"
   style="stroke:none;stroke-width:0"
   inkscape:connector-curvature="0" />
</g>
<g
   id="g3042"
   style="fill:#000000;fill-opacity:1">
  <path
   id="path3040"
   transform="translate(181.286,134.765)"
   d="m 2.875,-2.5 c 0,-0.765625 -0.109375,-1.96875 -0.65625,-3.109375 -0.59375,-1.21875 -1.453125,-1.875 -1.546875,-1.875 -0.0625,0 -0.109375,0.046875 -0.109375,0.109375 0,0.03125 0,0.046875 0.1875,0.234375 0.984375,0.984375 1.546875,2.5625 1.546875,4.640625 0,1.71875 -0.359375,3.46875 -1.59375,4.71875 C 0.5625,2.34375 0.5625,2.359375 0.5625,2.390625 0.5625,2.453125 0.609375,2.5 0.671875,2.5 0.765625,2.5 1.671875,1.8125 2.25,0.546875 2.765625,-0.546875 2.875,-1.65625 2.875,-2.5 Z m 0,0"
   style="stroke:none;stroke-width:0"
   inkscape:connector-curvature="0" />
</g>
</g>
</g><path
   sodipodi:type="spiral"
   style="fill:none;fill-rule:evenodd;stroke:#000000;stroke-width:0.75"
   id="path3068"
   sodipodi:cx="304.79721"
   sodipodi:cy="76.106857"
   sodipodi:expansion="0.5"
   sodipodi:revolution="0.050000001"
   sodipodi:radius="21.804459"
   sodipodi:argument="-4.6303816"
   sodipodi:t0="0.99900001"
   d="m 296.39373,96.215076 c -0.004,0.0025 -0.007,0.0049 -0.0105,0.0074" /><path
   sodipodi:type="spiral"
   style="fill:none;fill-rule:evenodd;stroke:#000000;stroke-width:0.75"
   id="path3072"
   sodipodi:cx="305.69028"
   sodipodi:cy="73.129982"
   sodipodi:expansion="0.5"
   sodipodi:revolution="0.050000001"
   sodipodi:radius="15.802688"
   sodipodi:argument="1.3131804"
   sodipodi:t0="0.99900001"
   d="m 304.80262,88.899804 c -0.002,0.0025 -0.004,0.0051 -0.005,0.0076" /><path
   sodipodi:type="spiral"
   style="fill:none;fill-rule:evenodd;stroke:#000000;stroke-width:0.75"
   id="path3348"
   sodipodi:cx="307.77411"
   sodipodi:cy="70.748489"
   sodipodi:expansion="0.5"
   sodipodi:revolution="0.64999998"
   sodipodi:radius="28.930868"
   sodipodi:argument="-2.5750508"
   sodipodi:t0="0.99900001"
   d="m 309.67719,99.602197 c -0.039,0.0074 -0.078,0.01473 -0.11696,0.02197" /><path
   sodipodi:type="spiral"
   style="fill:none;fill-rule:evenodd;stroke:#0000ff;stroke-width:0.28346458;stroke-miterlimit:4;stroke-dasharray:none;marker-end:url(#Arrow1Lend)"
   id="path3368"
   sodipodi:cx="6.2514353"
   sodipodi:cy="13.39593"
   sodipodi:expansion="1"
   sodipodi:revolution="0.2"
   sodipodi:radius="30.570625"
   sodipodi:argument="-0.86708933"
   sodipodi:t0="0.24225153"
   d="m 12.515507,9.445361 c 10.394949,-2.8451079 19.34584,6.364309 22.01623,15.560378"
   transform="matrix(-8.2417491e-4,1.2019773,-1.1055071,-8.9609514e-4,320.35407,56.736979)" /></g><g
     inkscape:groupmode="layer"
     id="layer1"
     inkscape:label="drawing 1" /></svg>